<svg width="509" height="577" viewBox="0 0 509 577" fill="none" xmlns="http://www.w3.org/2000/svg">
<path d="M74.5534 531.094C173.938 591.39 335.072 591.39 434.457 531.094C533.842 470.798 533.854 373.059 434.457 312.763C335.06 252.467 173.938 252.48 74.5416 312.763C-24.8551 373.045 -24.8433 470.784 74.5534 531.094Z" fill="#F5F5F5"/>
<path d="M200.132 478.731C226.917 493.555 270.333 493.555 297.058 478.731C323.784 463.908 323.843 439.888 297.058 425.065C270.274 410.241 226.869 410.241 200.132 425.065C173.395 439.888 173.3 463.921 200.132 478.731Z" fill="#EBEBEB"/>
<path d="M431.998 442.043L336.254 506.21C335.461 506.676 334.584 506.919 333.695 506.919C332.806 506.919 331.929 506.676 331.136 506.21L211.456 425.943C211.147 425.821 210.879 425.59 210.689 425.283C210.499 424.975 210.397 424.606 210.397 424.227C210.397 423.849 210.499 423.48 210.689 423.172C210.879 422.864 211.147 422.633 211.456 422.512L307.2 358.345C307.993 357.878 308.87 357.635 309.759 357.635C310.648 357.635 311.525 357.878 312.318 358.345L432.034 438.612C432.341 438.738 432.607 438.972 432.794 439.283C432.981 439.593 433.079 439.963 433.075 440.342C433.071 440.721 432.965 441.088 432.772 441.394C432.579 441.699 432.309 441.926 431.998 442.043Z" fill="#EBEBEB"/>
<path d="M458.641 89.312V118.781C458.641 118.781 448.216 124.449 429.091 124.449C409.966 124.449 399.54 118.767 399.54 118.767V89.9434L419.493 24.3768C419.221 26.4356 420.261 28.4944 422.601 30.114C424.313 31.3411 426.26 32.0594 428.268 32.2054C430.276 32.3514 432.284 31.9207 434.114 30.9513C434.628 30.7166 435.126 30.4367 435.604 30.114C438.086 28.4532 439.15 26.1748 438.665 24.0062L458.641 89.312Z" fill="#F5F5F5"/>
<path opacity="0.5" d="M458.641 89.312V118.781C458.641 118.781 448.216 124.449 429.091 124.449C409.966 124.449 399.54 118.767 399.54 118.767V89.9434L419.493 24.3768C419.221 26.4356 420.261 28.4944 422.601 30.114C424.313 31.3411 426.26 32.0594 428.268 32.2054C430.276 32.3514 432.284 31.9207 434.114 30.9513C434.628 30.7166 435.126 30.4367 435.604 30.114C438.086 28.4532 439.15 26.1748 438.665 24.0062L458.641 89.312Z" fill="white"/>
<path d="M456.348 295.88C454.635 298.501 452.463 300.672 449.977 302.249C438.416 310.004 419.681 310.004 408.133 302.249C405.642 300.673 403.467 298.503 401.75 295.88C400.416 293.821 399.628 291.355 399.48 288.784V304.088C399.693 308.975 402.566 313.82 408.133 317.553C419.681 325.294 438.416 325.294 449.977 317.553C455.745 313.682 458.641 308.604 458.641 303.526V288.235C458.597 291.002 457.794 293.681 456.348 295.88Z" fill="#F5F5F5"/>
<path d="M456.348 280.577C454.635 283.197 452.463 285.368 449.977 286.945C449.291 287.398 448.594 287.824 447.873 288.222C436.963 294.261 421.135 294.261 410.237 288.222C409.516 287.824 408.807 287.398 408.133 286.945C405.642 285.369 403.467 283.199 401.75 280.577C400.417 278.522 399.628 276.061 399.48 273.494V288.784C399.628 291.355 400.416 293.821 401.75 295.88C403.467 298.503 405.642 300.673 408.133 302.249C419.681 310.004 438.416 310.004 449.977 302.249C452.463 300.672 454.635 298.501 456.348 295.88C457.794 293.681 458.597 291.002 458.641 288.235V272.931C458.598 275.698 457.794 278.377 456.348 280.577Z" fill="#EBEBEB"/>
<path d="M456.348 265.273C454.633 267.895 452.462 270.069 449.977 271.655C449.291 272.108 448.594 272.52 447.873 272.931C436.963 278.971 421.135 278.971 410.237 272.931C409.516 272.52 408.807 272.108 408.133 271.655C405.644 270.069 403.47 267.895 401.75 265.273C400.417 263.218 399.628 260.757 399.48 258.19V273.494C399.628 276.061 400.417 278.522 401.75 280.577C403.467 283.199 405.642 285.369 408.133 286.945C408.807 287.398 409.516 287.824 410.237 288.222C421.135 294.261 436.963 294.261 447.873 288.222C448.594 287.824 449.291 287.398 449.977 286.945C452.463 285.368 454.635 283.197 456.348 280.577C457.794 278.377 458.598 275.698 458.641 272.931V257.628C458.599 260.395 457.796 263.074 456.348 265.273Z" fill="#F5F5F5"/>
<path d="M399.48 89.8885V258.19C399.628 260.757 400.417 263.218 401.75 265.273C403.47 267.895 405.644 270.069 408.133 271.655C408.807 272.108 409.516 272.52 410.237 272.931C413.095 274.478 416.103 275.616 419.197 276.322L413.842 98.9473L399.48 89.8885Z" fill="#F5F5F5"/>
<path d="M444.268 98.9473L438.901 276.322C441.995 275.616 445.003 274.478 447.861 272.931C448.582 272.52 449.28 272.108 449.965 271.655C452.45 270.069 454.621 267.895 456.336 265.273C457.784 263.074 458.588 260.395 458.629 257.628V89.312L444.268 98.9473Z" fill="#F5F5F5"/>
<path d="M399.48 89.8885V258.19C399.628 260.757 400.417 263.218 401.75 265.273C403.47 267.895 405.644 270.069 408.133 271.655C408.807 272.108 409.516 272.52 410.237 272.931C413.095 274.478 416.103 275.616 419.197 276.322L413.842 98.9473L399.48 89.8885Z" fill="#E0E0E0"/>
<path d="M444.268 98.9473L438.901 276.322C441.995 275.616 445.003 274.478 447.861 272.931C448.582 272.52 449.28 272.108 449.965 271.655C452.45 270.069 454.621 267.895 456.336 265.273C457.784 263.074 458.588 260.395 458.629 257.628V89.312L444.268 98.9473Z" fill="#E0E0E0"/>
<path d="M413.842 98.9473V274.633C415.593 275.336 417.382 275.905 419.197 276.335C422.442 277.097 425.744 277.478 429.055 277.475C432.365 277.472 435.667 277.09 438.913 276.335C440.728 275.905 442.517 275.336 444.268 274.633V98.9473H413.842Z" fill="#EBEBEB"/>
<path d="M435.556 30.0454C435.079 30.3681 434.581 30.6479 434.067 30.8827C432.236 31.8521 430.228 32.2828 428.22 32.1368C426.212 31.9907 424.266 31.2724 422.554 30.0454C420.19 28.4807 419.173 26.367 419.445 24.3082L426.254 2.16896C426.478 1.52156 426.865 0.967996 427.365 0.580963C427.865 0.19393 428.454 -0.00847173 429.055 0.000333115C429.658 -0.00935562 430.249 0.192507 430.751 0.579476C431.253 0.966445 431.642 1.52047 431.868 2.16896L438.606 23.9101C439.067 26.0787 438.039 28.3846 435.556 30.0454Z" fill="#E0E0E0"/>
<path d="M449.977 317.553C440.048 324.21 424.823 325.129 413.405 320.298C412.767 320.042 412.14 319.754 411.526 319.433L410.675 319.022C409.788 318.555 408.937 318.047 408.133 317.512C402.566 313.778 399.693 308.933 399.481 304.047V345.745C399.268 351.016 402.14 356.327 408.133 360.335C408.842 360.816 409.587 361.269 410.355 361.708C410.639 361.873 410.946 361.996 411.23 362.147C411.727 362.394 412.211 362.655 412.719 362.875C413.228 363.094 413.511 363.204 413.901 363.355C414.292 363.506 414.741 363.712 415.178 363.863C415.615 364.014 416.147 364.178 416.632 364.329C417.117 364.48 417.377 364.576 417.755 364.673C418.133 364.769 418.878 364.961 419.445 365.084C419.764 365.084 420.083 365.249 420.403 365.304C421.041 365.441 421.691 365.537 422.341 365.647L423.109 365.771C423.831 365.867 424.552 365.935 425.273 365.99H425.84C426.632 366.059 427.424 366.086 428.204 366.1H428.582C429.433 366.1 430.284 366.1 431.135 366.1H431.325C432.223 366.1 433.121 365.976 434.02 365.88C439.284 365.361 444.412 363.655 449.114 360.857C449.374 360.692 449.646 360.555 449.906 360.376C455.674 356.506 458.57 351.427 458.57 346.349V303.526C458.641 308.604 455.745 313.682 449.977 317.553Z" fill="#E0E0E0"/>
<path d="M93.1348 341.875C89.7188 340.873 71.4801 328.822 69.6243 327.353C67.7685 325.884 64.1042 322.851 64.1042 317.622C64.1042 312.996 64.518 269.377 67.7804 248.308C68.8521 241.754 71.0671 235.524 74.289 230.001C77.5109 224.477 81.6717 219.778 86.5155 216.19C97.8629 208.024 109.269 202.108 118.879 206.747C128.489 211.386 137.26 219.91 141.042 230.204C144.825 240.498 147.414 261.114 147.685 269.088C147.957 277.063 147.685 304.404 147.685 306.833C147.685 309.263 147.307 312.42 136.042 320.559C124.778 328.698 109.222 338.402 104.411 340.914C100.833 342.603 96.8872 342.939 93.1348 341.875Z" fill="#37474F"/>
<path d="M90.3217 221.859C89.2815 222.545 86.2791 220.83 85.83 219.965C85.3808 219.1 85.2626 211.62 87.5084 207.488C89.7543 203.357 103.761 195.739 107.225 196.302C108.522 196.547 109.762 197.097 110.87 197.919C111.978 198.74 112.929 199.815 113.667 201.079C114.092 202.135 114.565 209.094 113.667 210.522C112.768 211.949 109.565 209.753 109.281 209.149C108.998 208.545 110.333 203.453 108.099 202.396C106.043 201.435 96.2791 206.253 92.3075 210.124C90.5817 211.812 90.6644 215.998 90.7472 218.071C90.8299 220.143 90.8417 221.502 90.3217 221.859Z" fill="#455A64"/>
<path d="M87.5084 270.969C89.5179 248.308 93.1349 235.077 112.225 225.208C131.314 215.339 138.726 223.739 141.432 231.302C144.979 241.898 147.425 261.388 147.685 269.088C147.957 277.063 147.685 304.404 147.685 306.833C147.685 309.263 147.307 312.42 136.042 320.559C124.778 328.698 109.222 338.402 104.411 340.914C100.837 342.617 96.8909 342.967 93.1349 341.916C92.3805 341.649 91.6453 341.314 90.9363 340.914C84.9907 332.047 85.6644 291.667 87.5084 270.969Z" fill="#455A64"/>
<path d="M132.012 216.355C127.023 212.965 118.844 210.728 106.834 216.945C85.3688 228.049 79.9197 241.953 77.7566 266.357C77.3665 270.831 76.7873 276.157 76.5746 281.88L74.8015 280.631C75.0497 274.455 75.5698 269.171 75.9835 264.394C78.3476 239.812 84.6951 226.224 105.203 215.614C116.563 209.739 124.021 210.508 128.962 213.404C130.023 214.324 131.041 215.309 132.012 216.355Z" fill="#263238"/>
<path d="M132.756 216.986C127.78 213.596 119.588 211.359 107.591 217.577C86.1135 228.68 80.6643 242.584 78.5012 266.988C78.1111 271.463 77.5319 276.788 77.3192 282.512L75.5461 281.263C75.7944 275.086 76.3145 269.802 76.7282 265.026C79.0922 240.443 85.4397 226.841 105.948 216.245C117.307 210.371 124.967 211.345 129.908 214.228C130.901 215.084 131.852 216.005 132.756 216.986Z" fill="#455A64"/>
<path d="M125.806 238.535L119.317 234.226C118.997 234.017 118.618 233.963 118.264 234.076C117.91 234.189 117.609 234.46 117.426 234.83L110.771 248.267C110.585 248.637 110.533 249.076 110.626 249.491C110.719 249.905 110.95 250.259 111.267 250.477L117.674 254.814C117.992 255.029 118.371 255.089 118.728 254.981C119.084 254.873 119.39 254.606 119.577 254.237L126.314 240.718C126.407 240.536 126.467 240.335 126.491 240.127C126.516 239.918 126.504 239.705 126.457 239.502C126.409 239.299 126.327 239.108 126.216 238.942C126.104 238.776 125.965 238.638 125.806 238.535Z" fill="#263238"/>
<path d="M118.844 253.277L125.239 240.471C125.285 240.379 125.315 240.278 125.326 240.172C125.338 240.067 125.332 239.96 125.308 239.858C125.283 239.756 125.242 239.66 125.185 239.577C125.129 239.493 125.058 239.424 124.979 239.373L119.068 235.475C118.908 235.37 118.719 235.343 118.542 235.4C118.365 235.457 118.214 235.592 118.123 235.777L111.799 248.528C111.709 248.713 111.686 248.933 111.735 249.139C111.783 249.344 111.9 249.519 112.059 249.626L117.863 253.565C117.943 253.624 118.032 253.663 118.126 253.68C118.219 253.697 118.315 253.692 118.407 253.666C118.498 253.639 118.585 253.59 118.66 253.523C118.735 253.456 118.798 253.372 118.844 253.277Z" fill="#455A64"/>
<path d="M120.215 247.155C120.385 247.035 120.53 246.871 120.636 246.676C120.743 246.481 120.809 246.26 120.83 246.03V239.894C120.83 239.496 120.558 239.373 120.215 239.592C120.045 239.712 119.9 239.876 119.794 240.071C119.687 240.266 119.621 240.488 119.6 240.718V246.853C119.6 247.251 119.872 247.375 120.215 247.155Z" fill="#37474F"/>
<path d="M116.787 249.461C116.957 249.337 117.101 249.171 117.208 248.973C117.314 248.776 117.38 248.553 117.402 248.322V242.2C117.402 241.802 117.118 241.665 116.787 241.898C116.616 242.016 116.47 242.18 116.364 242.375C116.257 242.571 116.191 242.793 116.173 243.024V249.159C116.208 249.543 116.444 249.68 116.787 249.461Z" fill="#37474F"/>
<path d="M96.3501 290.129C96.3501 290.129 99.5652 293.204 101.882 304.788C104.199 316.373 105.594 330.963 103.064 332.72C100.535 334.476 96.882 330.798 95.9719 329.535C94.1043 326.941 94.5653 299.408 96.3501 290.129Z" fill="#263238"/>
<path d="M96.3501 290.129C96.3501 290.129 99.5652 293.204 101.882 304.788C104.199 316.373 105.594 330.963 103.064 332.72L142.071 306.01C144.624 304.253 145.251 288.922 142.946 277.337C141.421 269.72 138.619 266.096 136.894 264.504C136.498 264.149 136.019 263.94 135.52 263.903C135.021 263.866 134.524 264.004 134.092 264.298L96.3501 290.129Z" fill="#37474F"/>
<path d="M136.09 266.275C137.957 267.345 141.125 270.296 142.555 278.133C142.797 279.2 142.775 280.324 142.493 281.377C142.211 282.431 141.679 283.371 140.96 284.09C139.659 285.161 111.74 303.594 108.04 306.161C104.849 308.371 103.194 305.433 102.497 303.594C101.315 300.327 100.298 297.788 99.4233 295.839C98.7554 293.714 97.7126 291.774 96.3618 290.143L133.56 266.398C133.941 266.139 134.371 265.991 134.812 265.97C135.253 265.948 135.692 266.053 136.09 266.275Z" fill="#263238"/>
<path d="M77.7801 283.788C78.3204 286.148 78.6725 288.56 78.8321 290.994C78.8321 291.488 78.2529 291.749 78.0875 291.749C76.7357 291.433 75.4845 290.693 74.4705 289.608C74.6599 287.533 74.9839 285.477 75.4397 283.459L77.7801 283.788Z" fill="#263238"/>
<path d="M78.9858 281.853C78.9858 281.334 78.8534 280.828 78.6053 280.397C78.3572 279.965 78.0046 279.629 77.5921 279.431C77.1796 279.233 76.7256 279.181 76.2877 279.282C75.8497 279.383 75.4475 279.633 75.1317 279.999C74.816 280.366 74.601 280.833 74.5138 281.342C74.4267 281.85 74.4714 282.377 74.6423 282.856C74.8132 283.335 75.1026 283.745 75.4738 284.033C75.8451 284.321 76.2816 284.475 76.7281 284.475C77.3269 284.475 77.9012 284.198 78.3246 283.707C78.7479 283.215 78.9858 282.548 78.9858 281.853Z" fill="#263238"/>
<path d="M107.225 202.273C109.695 201.998 112.024 202.273 112.615 205.141C113.206 208.01 112.993 210.631 112.615 210.988C111.363 210.804 110.195 210.16 109.281 209.149C108.998 208.531 110.333 203.453 108.099 202.396C107.825 202.291 107.536 202.249 107.248 202.273H107.225Z" fill="#263238"/>
<path d="M134.329 264.147C134.711 263.885 135.143 263.737 135.586 263.715C136.029 263.694 136.47 263.8 136.87 264.024C138.738 265.094 141.905 268.045 143.336 275.882C143.575 276.949 143.553 278.073 143.271 279.126C142.989 280.178 142.459 281.119 141.74 281.839C140.44 282.91 112.532 301.343 108.832 303.91C105.641 306.12 103.974 303.182 103.277 301.343C99.4115 291.955 96.3501 290.129 96.3501 290.129L134.329 264.147Z" fill="#37474F"/>
<path d="M127.638 423.829L96.3381 402.857C95.5208 402.236 94.8405 401.4 94.3519 400.418C93.8633 399.436 93.58 398.334 93.5249 397.202V397.614C93.5781 396.481 93.8606 395.378 94.3494 394.396C94.8382 393.413 95.5195 392.578 96.3381 391.959L159.281 349.767C160.151 349.252 161.113 348.984 162.088 348.984C163.064 348.984 164.026 349.252 164.896 349.767L196.196 370.753C197.015 371.368 197.698 372.2 198.187 373.18C198.676 374.161 198.958 375.262 199.009 376.394V375.982C198.957 377.114 198.676 378.216 198.19 379.198C197.703 380.181 197.024 381.016 196.208 381.637L133.265 423.829C132.393 424.344 131.429 424.612 130.451 424.612C129.474 424.612 128.51 424.344 127.638 423.829Z" fill="#BA68C8"/>
<path opacity="0.7" d="M127.638 423.829L96.3381 402.857C95.5208 402.236 94.8405 401.4 94.3519 400.418C93.8633 399.436 93.58 398.334 93.5249 397.202V397.614C93.5781 396.481 93.8606 395.378 94.3494 394.396C94.8382 393.413 95.5195 392.578 96.3381 391.959L159.281 349.767C160.151 349.252 161.113 348.984 162.088 348.984C163.064 348.984 164.026 349.252 164.896 349.767L196.196 370.753C197.015 371.368 197.698 372.2 198.187 373.18C198.676 374.161 198.958 375.262 199.009 376.394V375.982C198.957 377.114 198.676 378.216 198.19 379.198C197.703 380.181 197.024 381.016 196.208 381.637L133.265 423.829C132.393 424.344 131.429 424.612 130.451 424.612C129.474 424.612 128.51 424.344 127.638 423.829Z" fill="black"/>
<path d="M130.392 369.092L96.291 391.959C95.4724 392.578 94.7911 393.413 94.3023 394.396C93.8135 395.378 93.531 396.481 93.4778 397.614V397.202C93.5329 398.334 93.8161 399.436 94.3047 400.418C94.7934 401.4 95.4737 402.236 96.291 402.857L127.591 423.829C128.456 424.364 129.424 424.633 130.404 424.612L130.392 369.092Z" fill="#BA68C8"/>
<path opacity="0.7" d="M130.392 369.092L96.291 391.959C95.4724 392.578 94.7911 393.413 94.3023 394.396C93.8135 395.378 93.531 396.481 93.4778 397.614V397.202C93.5329 398.334 93.8161 399.436 94.3047 400.418C94.7934 401.4 95.4737 402.236 96.291 402.857L127.591 423.829C128.456 424.364 129.424 424.633 130.404 424.612L130.392 369.092Z" fill="black"/>
<path d="M96.3262 395.733L127.614 416.72C128.488 417.227 129.451 417.491 130.428 417.491C131.404 417.491 132.367 417.227 133.241 416.72L196.184 374.514C197.744 373.471 197.744 371.769 196.184 370.753L164.884 349.767C164.014 349.252 163.052 348.984 162.076 348.984C161.101 348.984 160.139 349.252 159.269 349.767L96.3262 391.959C94.7659 393.002 94.7659 394.69 96.3262 395.733Z" fill="#BA68C8"/>
<path opacity="0.5" d="M96.3262 395.733L127.614 416.72C128.488 417.227 129.451 417.491 130.428 417.491C131.404 417.491 132.367 417.227 133.241 416.72L196.184 374.514C197.744 373.471 197.744 371.769 196.184 370.753L164.884 349.767C164.014 349.252 163.052 348.984 162.076 348.984C161.101 348.984 160.139 349.252 159.269 349.767L96.3262 391.959C94.7659 393.002 94.7659 394.69 96.3262 395.733Z" fill="black"/>
<path d="M96.3262 388.829V392.316L128.808 414.098C129.303 414.428 129.863 414.602 130.434 414.602C131.004 414.602 131.564 414.428 132.059 414.098L196.184 371.096V367.5L130.428 404.559L96.3262 388.829Z" fill="#BA68C8"/>
<path d="M127.626 409.816L96.3264 388.829C95.5065 388.211 94.8241 387.377 94.3352 386.394C93.8462 385.411 93.5646 384.308 93.5132 383.175V376.463C93.5646 375.329 93.8462 374.226 94.3352 373.243C94.8241 372.26 95.5065 371.426 96.3264 370.808L159.269 328.602C160.139 328.087 161.101 327.819 162.077 327.819C163.053 327.819 164.015 328.087 164.884 328.602L196.184 349.588C197.004 350.206 197.686 351.041 198.175 352.024C198.664 353.006 198.946 354.11 198.997 355.243V361.969C198.938 363.078 198.652 364.154 198.163 365.109C197.673 366.064 196.995 366.869 196.184 367.459L133.241 409.774C132.374 410.295 131.414 410.571 130.438 410.578C129.462 410.585 128.499 410.324 127.626 409.816Z" fill="#BA68C8"/>
<path opacity="0.6" d="M127.626 409.816L96.3264 388.829C95.5065 388.211 94.8241 387.377 94.3352 386.394C93.8462 385.411 93.5646 384.308 93.5132 383.175V376.463C93.5646 375.329 93.8462 374.226 94.3352 373.243C94.8241 372.26 95.5065 371.426 96.3264 370.808L159.269 328.602C160.139 328.087 161.101 327.819 162.077 327.819C163.053 327.819 164.015 328.087 164.884 328.602L196.184 349.588C197.004 350.206 197.686 351.041 198.175 352.024C198.664 353.006 198.946 354.11 198.997 355.243V361.969C198.938 363.078 198.652 364.154 198.163 365.109C197.673 366.064 196.995 366.869 196.184 367.459L133.241 409.774C132.374 410.295 131.414 410.571 130.438 410.578C129.462 410.585 128.499 410.324 127.626 409.816Z" fill="black"/>
<path d="M130.392 347.941L96.291 370.808C95.4711 371.426 94.7887 372.26 94.2998 373.243C93.8108 374.226 93.5292 375.329 93.4778 376.463V383.175C93.5292 384.308 93.8108 385.411 94.2998 386.394C94.7887 387.377 95.4711 388.211 96.291 388.829L127.591 409.816C128.451 410.352 129.416 410.621 130.392 410.598V347.941Z" fill="#BA68C8"/>
<path opacity="0.7" d="M130.392 347.941L96.291 370.808C95.4711 371.426 94.7887 372.26 94.2998 373.243C93.8108 374.226 93.5292 375.329 93.4778 376.463V383.175C93.5292 384.308 93.8108 385.411 94.2998 386.394C94.7887 387.377 95.4711 388.211 96.291 388.829L127.591 409.816C128.451 410.352 129.416 410.621 130.392 410.598V347.941Z" fill="black"/>
<path d="M96.3262 374.569L127.614 395.555C128.486 396.07 129.45 396.338 130.428 396.338C131.405 396.338 132.369 396.07 133.241 395.555L196.184 353.363C197.744 352.32 197.744 350.618 196.184 349.588L164.884 328.602C164.014 328.087 163.052 327.819 162.076 327.819C161.101 327.819 160.139 328.087 159.269 328.602L96.3262 370.808C94.7659 371.851 94.7659 373.539 96.3262 374.569Z" fill="#BA68C8"/>
<path opacity="0.5" d="M96.3262 374.569L127.614 395.555C128.486 396.07 129.45 396.338 130.428 396.338C131.405 396.338 132.369 396.07 133.241 395.555L196.184 353.363C197.744 352.32 197.744 350.618 196.184 349.588L164.884 328.602C164.014 328.087 163.052 327.819 162.076 327.819C161.101 327.819 160.139 328.087 159.269 328.602L96.3262 370.808C94.7659 371.851 94.7659 373.539 96.3262 374.569Z" fill="black"/>
<path d="M139.978 357.892C136.515 360.225 136.515 363.973 139.978 366.278C141.926 367.415 144.075 368.008 146.255 368.008C148.435 368.008 150.584 367.415 152.531 366.278C155.995 363.973 155.995 360.225 152.531 357.892C150.586 356.749 148.436 356.153 146.255 356.153C144.074 356.153 141.924 356.749 139.978 357.892Z" fill="#BA68C8"/>
<path d="M191.09 360.349C190.768 360.593 190.501 360.921 190.31 361.308C190.119 361.694 190.01 362.128 189.99 362.573C189.99 363.396 190.487 363.739 191.09 363.341C191.411 363.097 191.678 362.769 191.869 362.382C192.06 361.996 192.169 361.563 192.189 361.118C192.189 360.294 191.692 359.951 191.09 360.349Z" fill="#BA68C8"/>
<path d="M191.09 365.276C190.768 365.52 190.501 365.849 190.31 366.235C190.119 366.622 190.01 367.055 189.99 367.5C189.99 368.324 190.487 368.667 191.09 368.269C191.415 368.03 191.685 367.703 191.876 367.315C192.068 366.928 192.175 366.492 192.189 366.045C192.189 365.222 191.692 364.878 191.09 365.276Z" fill="#BA68C8"/>
<path d="M114.518 451.569C114.373 451.568 114.231 451.526 114.104 451.445L83.7733 430.98C82.988 430.452 82.3361 429.693 81.8829 428.78C81.4297 427.867 81.1912 426.832 81.1912 425.778C81.1912 424.725 81.4297 423.689 81.8829 422.776C82.3361 421.863 82.988 421.105 83.7733 420.576L106.007 405.671C106.196 405.559 106.414 405.536 106.617 405.606C106.82 405.676 106.992 405.834 107.098 406.046C107.204 406.259 107.236 406.511 107.187 406.75C107.138 406.989 107.012 407.197 106.835 407.331L84.6125 422.196C84.0834 422.561 83.645 423.079 83.3405 423.7C83.0361 424.321 82.876 425.023 82.876 425.737C82.876 426.452 83.0361 427.154 83.3405 427.775C83.645 428.396 84.0834 428.914 84.6125 429.278L114.943 449.716C115.045 449.778 115.135 449.864 115.206 449.969C115.277 450.074 115.328 450.195 115.356 450.325C115.384 450.455 115.388 450.59 115.368 450.721C115.348 450.853 115.304 450.978 115.239 451.088C115.168 451.237 115.063 451.36 114.936 451.445C114.809 451.53 114.664 451.572 114.518 451.569Z" fill="#BA68C8"/>
<path d="M152.508 431.804L145.936 401.169C145.842 400.746 145.72 400.333 145.569 399.933L147.484 399.618L143.312 396.873C142.436 396.32 141.448 396.055 140.452 396.106C139.457 396.157 138.492 396.521 137.662 397.161L110.298 415.553C108.419 416.981 106.857 418.904 105.737 421.165C104.618 423.425 103.974 425.961 103.856 428.565V465.404C103.856 468.341 104.47 470.359 105.735 471.059L109.659 473.694L108.714 470.784L108.927 470.688C113.43 468.19 115.061 463.633 116.409 459.118L121.622 441.618C122.969 437.102 126.35 431.927 129.116 430.047C131.882 428.167 135.83 430.047 137.863 434.165L140.487 439.49C141.288 441.181 142.495 442.564 143.962 443.471L147.957 446.216L146.941 444.376C147.771 444.379 148.588 444.123 149.305 443.635C152.035 441.741 153.501 436.471 152.508 431.804Z" fill="#BA68C8"/>
<path opacity="0.7" d="M152.508 431.804L145.936 401.169C145.842 400.746 145.72 400.333 145.569 399.933L147.484 399.618L143.312 396.873C142.436 396.32 141.448 396.055 140.452 396.106C139.457 396.157 138.492 396.521 137.662 397.161L110.298 415.553C108.419 416.981 106.857 418.904 105.737 421.165C104.618 423.425 103.974 425.961 103.856 428.565V465.404C103.856 468.341 104.47 470.359 105.735 471.059L109.659 473.694L108.714 470.784L108.927 470.688C113.43 468.19 115.061 463.633 116.409 459.118L121.622 441.618C122.969 437.102 126.35 431.927 129.116 430.047C131.882 428.167 135.83 430.047 137.863 434.165L140.487 439.49C141.288 441.181 142.495 442.564 143.962 443.471L147.957 446.216L146.941 444.376C147.771 444.379 148.588 444.123 149.305 443.635C152.035 441.741 153.501 436.471 152.508 431.804Z" fill="black"/>
<path d="M145.569 399.933L147.484 399.618L143.312 396.873C142.436 396.32 141.448 396.055 140.452 396.106C139.457 396.157 138.492 396.521 137.662 397.161L110.298 415.553C108.769 416.659 107.463 418.133 106.468 419.876L112.981 424.488L146.291 402.637L145.971 401.169C145.866 400.745 145.732 400.332 145.569 399.933Z" fill="#BA68C8"/>
<path opacity="0.5" d="M145.569 399.933L147.484 399.618L143.312 396.873C142.436 396.32 141.448 396.055 140.452 396.106C139.457 396.157 138.492 396.521 137.662 397.161L110.298 415.553C108.769 416.659 107.463 418.133 106.468 419.876L112.981 424.488L146.291 402.637L145.971 401.169C145.866 400.745 145.732 400.332 145.569 399.933Z" fill="black"/>
<path d="M153.477 446.49C150.676 448.37 146.74 446.49 144.695 442.372L142.083 437.047C140.038 432.929 136.172 431.049 133.324 432.929C130.475 434.81 127.177 439.971 125.83 444.5L120.629 461.986C119.281 466.502 117.638 471.059 113.135 473.557C109.73 475.451 108.087 473.063 108.087 468.286V431.42C108.209 428.817 108.857 426.284 109.978 424.026C111.099 421.768 112.663 419.848 114.541 418.422L141.952 399.961C142.691 399.36 143.549 398.988 144.446 398.881C145.342 398.773 146.248 398.933 147.077 399.345C147.905 399.758 148.629 400.409 149.181 401.237C149.732 402.065 150.092 403.043 150.227 404.078L156.799 434.727C157.768 439.312 156.29 444.61 153.477 446.49Z" fill="#BA68C8"/>
<path opacity="0.6" d="M153.477 446.49C150.676 448.37 146.74 446.49 144.695 442.372L142.083 437.047C140.038 432.929 136.172 431.049 133.324 432.929C130.475 434.81 127.177 439.971 125.83 444.5L120.629 461.986C119.281 466.502 117.638 471.059 113.135 473.557C109.73 475.451 108.087 473.063 108.087 468.286V431.42C108.209 428.817 108.857 426.284 109.978 424.026C111.099 421.768 112.663 419.848 114.541 418.422L141.952 399.961C142.691 399.36 143.549 398.988 144.446 398.881C145.342 398.773 146.248 398.933 147.077 399.345C147.905 399.758 148.629 400.409 149.181 401.237C149.732 402.065 150.092 403.043 150.227 404.078L156.799 434.727C157.768 439.312 156.29 444.61 153.477 446.49Z" fill="black"/>
<path d="M142.851 410.571L143.536 415.086L146.574 412.835L147.248 417.351L144.222 419.616L144.908 424.131L141.882 426.382L141.196 421.867L138.17 424.131L137.484 419.602L140.51 417.351L139.825 412.835L142.851 410.571Z" fill="#263238"/>
<path d="M143.726 411.106L144.411 415.622L147.437 413.371L148.123 417.886L145.097 420.151L145.783 424.667L142.757 426.918L142.071 422.402L139.045 424.653L138.359 420.137L141.385 417.886L140.7 413.371L143.726 411.106Z" fill="#BA68C8"/>
<path d="M119.92 426.561C120 427.197 119.934 427.847 119.726 428.443C119.518 429.039 119.177 429.559 118.738 429.951C117.898 430.569 117.071 430.061 116.882 428.812C116.797 428.175 116.862 427.524 117.07 426.927C117.278 426.331 117.622 425.81 118.064 425.422C118.891 424.804 119.754 425.312 119.92 426.561Z" fill="#263238"/>
<path d="M121.291 435.592C121.375 436.228 121.31 436.88 121.102 437.476C120.894 438.073 120.551 438.594 120.109 438.982C119.269 439.6 118.442 439.092 118.253 437.857C118.167 437.22 118.231 436.569 118.44 435.972C118.648 435.375 118.992 434.854 119.435 434.467C120.262 433.835 121.102 434.343 121.291 435.592Z" fill="#263238"/>
<path d="M123.631 428.812C123.717 429.448 123.653 430.1 123.444 430.697C123.236 431.294 122.892 431.814 122.449 432.202C121.61 432.833 120.783 432.325 120.593 431.076C120.507 430.44 120.572 429.788 120.78 429.191C120.988 428.594 121.332 428.074 121.775 427.686C122.615 427.069 123.442 427.563 123.631 428.812Z" fill="#263238"/>
<path d="M117.579 433.327C117.665 433.964 117.601 434.615 117.393 435.213C117.184 435.81 116.84 436.33 116.397 436.718C115.558 437.349 114.731 436.841 114.541 435.592C114.457 434.956 114.522 434.305 114.73 433.708C114.938 433.111 115.281 432.591 115.723 432.202C116.563 431.584 117.39 432.078 117.579 433.327Z" fill="#263238"/>
<path d="M119.979 426.602C120.063 427.238 119.998 427.889 119.79 428.486C119.582 429.083 119.239 429.603 118.797 429.992C117.957 430.61 117.13 430.116 116.941 428.867C116.855 428.23 116.919 427.579 117.128 426.981C117.336 426.384 117.68 425.864 118.123 425.476C118.962 424.845 119.754 425.353 119.979 426.602Z" fill="#263238"/>
<path d="M121.35 435.633C121.436 436.27 121.371 436.921 121.163 437.518C120.955 438.115 120.611 438.636 120.168 439.023C119.328 439.655 118.501 439.147 118.312 437.898C118.226 437.262 118.29 436.61 118.499 436.013C118.707 435.416 119.051 434.895 119.494 434.508C120.333 433.89 121.161 434.384 121.35 435.633Z" fill="#263238"/>
<path d="M123.69 428.867C123.774 429.501 123.708 430.15 123.5 430.744C123.292 431.339 122.949 431.857 122.508 432.243C121.681 432.874 120.842 432.367 120.652 431.118C120.57 430.481 120.637 429.831 120.845 429.235C121.052 428.639 121.394 428.118 121.834 427.727C122.674 427.11 123.501 427.618 123.69 428.867Z" fill="#263238"/>
<path d="M117.638 433.382C117.723 434.019 117.658 434.67 117.45 435.267C117.242 435.863 116.898 436.384 116.456 436.773C115.629 437.39 114.79 436.882 114.6 435.633C114.52 434.997 114.587 434.348 114.794 433.752C115.002 433.155 115.343 432.635 115.782 432.243C116.622 431.625 117.449 432.133 117.638 433.382Z" fill="#263238"/>
<path d="M120.038 426.643C120.124 427.279 120.059 427.931 119.851 428.528C119.643 429.125 119.299 429.646 118.856 430.033C118.028 430.665 117.189 430.157 117 428.908C116.918 428.272 116.984 427.621 117.192 427.025C117.4 426.429 117.742 425.908 118.182 425.518C119.021 424.9 119.848 425.394 120.038 426.643Z" fill="#263238"/>
<path d="M121.409 435.688C121.493 436.322 121.427 436.971 121.219 437.566C121.011 438.16 120.668 438.678 120.227 439.065C119.399 439.696 118.56 439.188 118.371 437.939C118.289 437.303 118.355 436.653 118.563 436.057C118.771 435.46 119.113 434.94 119.553 434.549C120.392 433.931 121.22 434.439 121.409 435.688Z" fill="#263238"/>
<path d="M123.761 428.908C123.843 429.544 123.777 430.194 123.569 430.79C123.361 431.387 123.019 431.907 122.579 432.298C121.74 432.916 120.912 432.408 120.723 431.173C120.637 430.536 120.702 429.885 120.91 429.287C121.118 428.69 121.462 428.17 121.905 427.782C122.733 427.151 123.572 427.659 123.761 428.908Z" fill="#263238"/>
<path d="M117.709 433.423C117.791 434.06 117.725 434.71 117.517 435.306C117.309 435.902 116.967 436.423 116.527 436.814C115.688 437.431 114.86 436.937 114.671 435.688C114.585 435.052 114.65 434.4 114.858 433.803C115.066 433.206 115.41 432.686 115.853 432.298C116.681 431.667 117.52 432.174 117.709 433.423Z" fill="#263238"/>
<path d="M120.109 426.698C120.191 427.334 120.124 427.984 119.916 428.581C119.709 429.177 119.367 429.698 118.927 430.088C118.087 430.706 117.26 430.198 117.071 428.949C116.987 428.315 117.053 427.666 117.261 427.071C117.469 426.477 117.812 425.959 118.253 425.572C119.08 424.941 119.919 425.49 120.109 426.698Z" fill="#263238"/>
<path d="M121.48 435.729C121.562 436.366 121.496 437.016 121.288 437.612C121.08 438.208 120.738 438.729 120.298 439.12C119.459 439.737 118.631 439.243 118.442 437.994C118.356 437.358 118.421 436.706 118.629 436.109C118.837 435.512 119.181 434.992 119.624 434.604C120.451 433.973 121.291 434.48 121.48 435.729Z" fill="#263238"/>
<path d="M123.82 428.949C123.906 429.585 123.842 430.237 123.633 430.834C123.425 431.431 123.081 431.951 122.638 432.339C121.799 432.971 120.972 432.463 120.782 431.214C120.698 430.577 120.763 429.926 120.971 429.329C121.179 428.733 121.522 428.212 121.964 427.823C122.804 427.206 123.631 427.7 123.82 428.949Z" fill="#263238"/>
<path d="M117.768 433.465C117.854 434.101 117.79 434.753 117.581 435.35C117.373 435.947 117.029 436.467 116.586 436.855C115.747 437.486 114.92 436.978 114.73 435.729C114.646 435.093 114.711 434.442 114.919 433.845C115.127 433.248 115.47 432.728 115.912 432.339C116.752 431.721 117.579 432.216 117.768 433.465Z" fill="#263238"/>
<path d="M120.168 426.739C120.253 427.376 120.187 428.027 119.979 428.623C119.771 429.22 119.428 429.741 118.986 430.129C118.147 430.747 117.319 430.253 117.13 429.004C117.044 428.367 117.109 427.716 117.317 427.119C117.525 426.522 117.869 426.001 118.312 425.614C119.151 424.982 119.979 425.49 120.168 426.739Z" fill="#263238"/>
<path d="M121.539 435.771C121.625 436.407 121.56 437.059 121.352 437.656C121.144 438.253 120.8 438.773 120.357 439.161C119.518 439.792 118.69 439.284 118.501 438.035C118.416 437.399 118.482 436.748 118.69 436.151C118.898 435.554 119.241 435.034 119.683 434.645C120.522 434.027 121.35 434.522 121.539 435.771Z" fill="#263238"/>
<path d="M123.879 429.004C123.963 429.64 123.897 430.291 123.689 430.887C123.481 431.484 123.138 432.004 122.697 432.394C121.858 433.012 121.031 432.504 120.841 431.255C120.757 430.619 120.822 429.967 121.03 429.371C121.238 428.774 121.581 428.253 122.024 427.865C122.863 427.247 123.69 427.755 123.879 429.004Z" fill="#263238"/>
<path d="M117.827 433.52C117.912 434.156 117.847 434.807 117.639 435.404C117.431 436.001 117.087 436.521 116.645 436.91C115.818 437.527 114.979 437.02 114.789 435.771C114.708 435.136 114.775 434.489 114.983 433.895C115.191 433.301 115.532 432.783 115.971 432.394C116.811 431.763 117.638 432.271 117.827 433.52Z" fill="#263238"/>
<path d="M120.227 426.78C120.313 427.417 120.248 428.068 120.04 428.665C119.832 429.263 119.488 429.783 119.045 430.171C118.217 430.802 117.378 430.294 117.189 429.045C117.107 428.409 117.173 427.759 117.381 427.162C117.589 426.566 117.931 426.045 118.371 425.655C119.21 425.037 120.038 425.49 120.227 426.78Z" fill="#263238"/>
<path d="M121.598 435.825C121.681 436.462 121.616 437.112 121.408 437.709C121.2 438.305 120.857 438.826 120.416 439.216C119.588 439.833 118.749 439.325 118.56 438.076C118.478 437.44 118.544 436.79 118.752 436.194C118.96 435.597 119.302 435.077 119.742 434.686C120.581 434.069 121.409 434.576 121.598 435.825Z" fill="#263238"/>
<path d="M123.938 429.045C124.023 429.681 123.958 430.332 123.75 430.929C123.542 431.526 123.198 432.047 122.756 432.435C121.929 433.053 121.09 432.559 120.901 431.31C120.817 430.673 120.883 430.023 121.091 429.426C121.299 428.83 121.642 428.309 122.083 427.92C122.922 427.288 123.749 427.796 123.938 429.045Z" fill="#263238"/>
<path d="M117.898 433.561C117.98 434.197 117.914 434.847 117.706 435.443C117.498 436.04 117.156 436.56 116.716 436.951C115.877 437.569 115.05 437.074 114.861 435.825C114.774 435.189 114.839 434.537 115.047 433.94C115.255 433.343 115.599 432.823 116.043 432.435C116.87 431.804 117.709 432.353 117.898 433.561Z" fill="#263238"/>
<path d="M120.298 426.863C120.38 427.499 120.314 428.149 120.106 428.745C119.898 429.342 119.556 429.862 119.116 430.253C118.276 430.87 117.449 430.363 117.26 429.127C117.174 428.491 117.238 427.839 117.447 427.242C117.655 426.645 117.999 426.125 118.442 425.737C119.269 425.078 120.109 425.586 120.298 426.863Z" fill="#263238"/>
<path d="M121.669 435.867C121.751 436.503 121.685 437.153 121.477 437.749C121.269 438.346 120.927 438.866 120.487 439.257C119.648 439.874 118.82 439.38 118.631 438.131C118.545 437.495 118.61 436.843 118.818 436.246C119.026 435.649 119.37 435.129 119.813 434.741C120.64 434.11 121.48 434.618 121.669 435.867Z" fill="#263238"/>
<path d="M124.009 429.086C124.093 429.722 124.027 430.373 123.819 430.97C123.611 431.566 123.268 432.087 122.827 432.476C121.988 433.108 121.16 432.6 120.971 431.351C120.887 430.715 120.952 430.063 121.16 429.467C121.368 428.87 121.711 428.349 122.153 427.961C122.981 427.343 123.82 427.837 124.009 429.086Z" fill="#263238"/>
<path d="M117.957 433.602C118.043 434.238 117.979 434.89 117.771 435.487C117.562 436.084 117.218 436.604 116.775 436.992C115.936 437.623 115.109 437.116 114.92 435.867C114.835 435.23 114.9 434.579 115.108 433.982C115.316 433.385 115.66 432.865 116.102 432.476C116.941 431.859 117.768 432.353 117.957 433.602Z" fill="#263238"/>
<path d="M120.357 426.863C120.443 427.499 120.379 428.151 120.17 428.748C119.962 429.345 119.618 429.865 119.175 430.253C118.336 430.884 117.508 430.376 117.319 429.127C117.233 428.491 117.298 427.839 117.506 427.242C117.714 426.645 118.058 426.125 118.501 425.737C119.341 425.12 120.168 425.627 120.357 426.863Z" fill="#263238"/>
<path d="M121.728 435.908C121.814 436.544 121.749 437.196 121.541 437.793C121.333 438.39 120.989 438.91 120.546 439.298C119.707 439.929 118.879 439.421 118.69 438.172C118.605 437.536 118.671 436.885 118.879 436.288C119.087 435.691 119.43 435.171 119.872 434.782C120.711 434.165 121.539 434.659 121.728 435.908Z" fill="#263238"/>
<path d="M124.068 429.141C124.153 429.777 124.088 430.429 123.88 431.025C123.672 431.622 123.328 432.143 122.886 432.531C122.047 433.149 121.22 432.641 121.03 431.392C120.947 430.758 121.012 430.109 121.22 429.515C121.429 428.92 121.771 428.402 122.213 428.016C123.052 427.384 123.879 427.892 124.068 429.141Z" fill="#263238"/>
<path d="M118.016 433.725C118.101 434.362 118.036 435.013 117.828 435.61C117.62 436.207 117.277 436.727 116.834 437.116C116.007 437.733 115.168 437.225 114.979 435.99C114.893 435.354 114.957 434.702 115.165 434.105C115.374 433.508 115.718 432.988 116.161 432.6C117 431.9 117.827 432.353 118.016 433.725Z" fill="#263238"/>
<path d="M120.416 426.931C120.5 427.566 120.434 428.214 120.226 428.809C120.018 429.403 119.675 429.921 119.234 430.308C118.395 430.939 117.567 430.431 117.378 429.182C117.294 428.546 117.359 427.895 117.567 427.298C117.775 426.701 118.118 426.181 118.56 425.792C119.4 425.174 120.227 425.682 120.416 426.931Z" fill="#263238"/>
<path d="M121.787 435.963C121.872 436.599 121.807 437.25 121.599 437.847C121.39 438.444 121.047 438.964 120.605 439.353C119.778 439.971 118.938 439.463 118.749 438.214C118.665 437.579 118.731 436.931 118.939 436.336C119.147 435.742 119.49 435.224 119.931 434.837C120.771 434.206 121.598 434.714 121.787 435.963Z" fill="#263238"/>
<path d="M124.128 429.182C124.212 429.819 124.147 430.47 123.939 431.067C123.731 431.663 123.388 432.184 122.946 432.572C122.118 433.19 121.279 432.696 121.09 431.447C121.006 430.811 121.072 430.16 121.28 429.564C121.488 428.967 121.831 428.446 122.272 428.057C123.111 427.425 123.938 427.933 124.128 429.182Z" fill="#263238"/>
<path d="M118.076 433.725C118.162 434.362 118.097 435.013 117.889 435.611C117.681 436.208 117.337 436.728 116.894 437.116C116.066 437.747 115.239 437.239 115.038 435.99C114.954 435.354 115.02 434.703 115.228 434.107C115.436 433.51 115.779 432.99 116.22 432.6C117.059 431.941 117.887 432.449 118.076 433.725Z" fill="#263238"/>
<path d="M120.475 426.972C120.56 427.609 120.495 428.26 120.287 428.857C120.078 429.454 119.735 429.974 119.293 430.363C118.466 430.98 117.626 430.473 117.437 429.237C117.354 428.601 117.42 427.95 117.628 427.354C117.836 426.757 118.178 426.237 118.619 425.847C119.459 425.216 120.286 425.723 120.475 426.972Z" fill="#263238"/>
<path d="M121.846 436.004C121.931 436.64 121.866 437.291 121.658 437.888C121.45 438.485 121.106 439.005 120.664 439.394C119.837 440.012 119.009 439.518 118.82 438.269C118.734 437.632 118.799 436.981 119.007 436.383C119.215 435.786 119.559 435.266 120.002 434.878C120.83 434.247 121.657 434.755 121.846 436.004Z" fill="#263238"/>
<path d="M124.198 429.223C124.282 429.86 124.216 430.51 124.008 431.107C123.8 431.703 123.457 432.224 123.016 432.614C122.177 433.245 121.35 432.737 121.161 431.488C121.076 430.852 121.141 430.201 121.349 429.604C121.557 429.007 121.901 428.487 122.343 428.098C123.17 427.48 124.009 427.988 124.198 429.223Z" fill="#263238"/>
<path d="M118.146 433.725C118.228 434.36 118.161 435.007 117.953 435.601C117.745 436.195 117.404 436.713 116.964 437.102C116.125 437.733 115.298 437.225 115.109 435.976C115.024 435.34 115.089 434.689 115.297 434.092C115.505 433.495 115.849 432.975 116.291 432.586C117.118 431.996 117.957 432.504 118.146 433.725Z" fill="#263238"/>
<path d="M120.546 427.014C120.629 427.65 120.563 428.301 120.355 428.897C120.147 429.494 119.805 430.014 119.364 430.404C118.525 431.035 117.697 430.527 117.508 429.278C117.423 428.642 117.488 427.991 117.697 427.394C117.905 426.797 118.248 426.277 118.69 425.888C119.517 425.271 120.357 425.765 120.546 427.014Z" fill="#263238"/>
<path d="M121.917 436.045C122.001 436.681 121.935 437.332 121.727 437.928C121.519 438.525 121.176 439.046 120.735 439.435C119.896 440.067 119.068 439.559 118.879 438.31C118.795 437.673 118.86 437.022 119.068 436.425C119.276 435.829 119.619 435.308 120.061 434.92C120.936 434.302 121.728 434.81 121.917 436.045Z" fill="#263238"/>
<path d="M124.258 429.278C124.342 429.915 124.277 430.566 124.069 431.163C123.861 431.76 123.518 432.28 123.076 432.669C122.236 433.286 121.409 432.778 121.22 431.543C121.134 430.907 121.198 430.255 121.407 429.658C121.615 429.061 121.959 428.541 122.402 428.153C123.3 427.522 124.069 428.029 124.258 429.278Z" fill="#263238"/>
<path d="M118.205 433.794C118.29 434.43 118.225 435.082 118.017 435.678C117.809 436.275 117.466 436.796 117.023 437.184C116.184 437.802 115.357 437.294 115.168 436.059C115.082 435.422 115.146 434.771 115.354 434.174C115.563 433.576 115.907 433.056 116.35 432.669C117.189 432.037 118.016 432.545 118.205 433.794Z" fill="#263238"/>
<path d="M120.605 427.069C120.689 427.705 120.623 428.355 120.415 428.952C120.207 429.549 119.864 430.069 119.423 430.459C118.584 431.076 117.756 430.569 117.567 429.32C117.483 428.683 117.548 428.032 117.756 427.435C117.964 426.838 118.307 426.318 118.749 425.929C119.589 425.312 120.416 425.82 120.605 427.069Z" fill="#263238"/>
<path d="M121.976 436.1C122.061 436.736 121.996 437.387 121.788 437.984C121.58 438.581 121.236 439.101 120.794 439.49C119.955 440.108 119.128 439.6 118.938 438.365C118.852 437.728 118.917 437.077 119.125 436.48C119.333 435.882 119.677 435.362 120.12 434.974C120.936 434.343 121.787 434.851 121.976 436.1Z" fill="#263238"/>
<path d="M124.317 429.32C124.403 429.956 124.338 430.608 124.13 431.205C123.922 431.802 123.578 432.322 123.135 432.71C122.307 433.341 121.468 432.833 121.279 431.584C121.195 430.948 121.261 430.297 121.469 429.701C121.677 429.104 122.02 428.584 122.461 428.194C123.3 427.563 124.127 428.071 124.317 429.32Z" fill="#263238"/>
<path d="M118.265 433.835C118.351 434.472 118.286 435.123 118.078 435.72C117.87 436.317 117.526 436.838 117.083 437.225C116.255 437.857 115.416 437.349 115.227 436.1C115.145 435.464 115.211 434.814 115.419 434.217C115.627 433.621 115.969 433.1 116.409 432.71C117.248 432.092 118.076 432.586 118.265 433.835Z" fill="#263238"/>
<path d="M142.851 410.571L143.726 411.106L140.7 413.371L139.825 412.835L142.851 410.571Z" fill="#263238"/>
<path d="M140.51 417.351L141.385 417.886L138.359 420.137L137.484 419.602L140.51 417.351Z" fill="#263238"/>
<path d="M144.411 415.622L144.246 414.565L146.574 412.835L147.437 413.371L144.411 415.622Z" fill="#263238"/>
<path d="M137.484 419.602L138.359 420.137L139.045 424.653L138.17 424.131L137.484 419.602Z" fill="#263238"/>
<path d="M141.881 426.382L142.756 426.918L142.071 422.402L141.361 422.937L141.881 426.382Z" fill="#263238"/>
<path d="M120.605 427.069C120.689 427.705 120.623 428.355 120.415 428.952C120.207 429.549 119.864 430.069 119.423 430.459C118.584 431.076 117.756 430.569 117.567 429.32C117.483 428.683 117.548 428.032 117.756 427.435C117.964 426.838 118.307 426.318 118.749 425.929C119.589 425.312 120.416 425.82 120.605 427.069Z" fill="#BA68C8"/>
<path d="M121.976 436.1C122.061 436.736 121.996 437.387 121.788 437.984C121.58 438.581 121.236 439.101 120.794 439.49C119.955 440.108 119.128 439.6 118.938 438.365C118.852 437.728 118.917 437.077 119.125 436.48C119.333 435.882 119.677 435.362 120.12 434.974C120.936 434.343 121.787 434.851 121.976 436.1Z" fill="#BA68C8"/>
<path d="M124.317 429.32C124.403 429.956 124.338 430.608 124.13 431.205C123.922 431.802 123.578 432.322 123.135 432.71C122.307 433.341 121.468 432.833 121.279 431.584C121.195 430.948 121.261 430.297 121.469 429.701C121.677 429.104 122.02 428.584 122.461 428.194C123.3 427.563 124.127 428.071 124.317 429.32Z" fill="#BA68C8"/>
<path d="M118.265 433.835C118.351 434.472 118.286 435.123 118.078 435.72C117.87 436.317 117.526 436.838 117.083 437.225C116.255 437.857 115.416 437.349 115.227 436.1C115.145 435.464 115.211 434.814 115.419 434.217C115.627 433.621 115.969 433.1 116.409 432.71C117.248 432.092 118.076 432.586 118.265 433.835Z" fill="#BA68C8"/>
<path d="M413.689 427.014L411.325 425.463L413.003 424.584C413.003 424.584 414.315 424.996 414.351 425.065C414.34 425.419 414.308 425.772 414.256 426.121L413.689 427.014Z" fill="#E0E0E0"/>
<path d="M413.689 427.014L411.325 425.463L413.003 424.584C413.003 424.584 414.315 424.996 414.351 425.065C414.34 425.419 414.308 425.772 414.256 426.121L413.689 427.014Z" fill="#BA68C8"/>
<path opacity="0.1" d="M413.689 427.014L411.325 425.463L413.003 424.584C413.003 424.584 414.315 424.996 414.351 425.065C414.34 425.419 414.308 425.772 414.256 426.121L413.689 427.014Z" fill="white"/>
<path d="M325.722 478.47C326.77 479.087 327.928 479.408 329.103 479.408C330.277 479.408 331.436 479.087 332.483 478.47L408.299 427.686L294.824 351.592L292.176 349.822L216.361 400.606C214.505 401.855 214.505 403.9 216.361 405.135L325.722 478.47Z" fill="#BA68C8"/>
<path opacity="0.8" d="M325.722 478.47C326.77 479.087 327.928 479.408 329.103 479.408C330.277 479.408 331.436 479.087 332.483 478.47L408.299 427.686L294.824 351.592L292.176 349.822L216.361 400.606C214.505 401.855 214.505 403.9 216.361 405.135L325.722 478.47Z" fill="white"/>
<path d="M354.197 382.447L380.639 400.112L397.755 388.637L417.625 402.006V418.627C417.625 420.645 415.675 423.514 414.965 423.047C413.654 423.415 412.378 423.94 411.159 424.612C409.171 425.924 407.326 427.51 405.663 429.333L344.907 388.61L354.197 382.447Z" fill="#E0E0E0"/>
<path d="M354.197 382.447L380.639 400.112L397.755 388.637L417.625 402.006V418.627C417.625 420.645 415.675 423.514 414.965 423.047C413.654 423.415 412.378 423.94 411.159 424.612C409.171 425.924 407.326 427.51 405.663 429.333L344.907 388.61L354.197 382.447Z" fill="#BA68C8"/>
<path opacity="0.1" d="M354.197 382.447L380.639 400.112L397.755 388.637L417.625 402.006V418.627C417.625 420.645 415.675 423.514 414.965 423.047C413.654 423.415 412.378 423.94 411.159 424.612C409.171 425.924 407.326 427.51 405.663 429.333L344.907 388.61L354.197 382.447Z" fill="white"/>
<path d="M332.519 478.457L337.094 475.382L405.734 429.374C405.786 428.334 406.112 427.337 406.668 426.52C407.478 425.269 408.5 424.223 409.67 423.445C410.649 422.749 411.762 422.348 412.909 422.278C413.676 422.266 414.424 422.551 415.036 423.088C415.93 421.051 416.365 418.785 416.301 416.5H418.902C418.902 420.618 417.72 424.845 416.266 425.806L414.954 426.698C414.209 427.192 413.618 427.22 413.618 426.698V425.888C413.618 424.982 412.436 425.023 410.97 426.012C409.505 427 408.334 428.51 408.334 429.416V430.239C408.334 430.706 407.318 431.749 406.089 432.572L339.706 477.084L332.519 481.888C331.479 482.513 330.321 482.829 329.15 482.808V479.321C330.319 479.377 331.48 479.079 332.519 478.457Z" fill="#BA68C8"/>
<path opacity="0.6" d="M332.519 478.457L337.094 475.382L405.734 429.374C405.786 428.334 406.112 427.337 406.668 426.52C407.478 425.269 408.5 424.223 409.67 423.445C410.649 422.749 411.762 422.348 412.909 422.278C413.676 422.266 414.424 422.551 415.036 423.088C415.93 421.051 416.365 418.785 416.301 416.5H418.902C418.902 420.618 417.72 424.845 416.266 425.806L414.954 426.698C414.209 427.192 413.618 427.22 413.618 426.698V425.888C413.618 424.982 412.436 425.023 410.97 426.012C409.505 427 408.334 428.51 408.334 429.416V430.239C408.334 430.706 407.318 431.749 406.089 432.572L339.706 477.084L332.519 481.888C331.479 482.513 330.321 482.829 329.15 482.808V479.321C330.319 479.377 331.48 479.079 332.519 478.457Z" fill="white"/>
<path d="M214.943 402.802V406.357C214.982 406.831 215.126 407.286 215.363 407.676C215.599 408.066 215.919 408.377 216.29 408.58L318.5 477.098L325.675 481.902C326.715 482.527 327.873 482.843 329.044 482.821V479.335C327.865 479.368 326.699 479.041 325.663 478.388L321.1 475.327L216.29 405.039C215.917 404.835 215.596 404.521 215.36 404.129C215.123 403.736 214.98 403.279 214.943 402.802Z" fill="#BA68C8"/>
<path opacity="0.1" d="M214.943 402.802V406.357C214.982 406.831 215.126 407.286 215.363 407.676C215.599 408.066 215.919 408.377 216.29 408.58L318.5 477.098L325.675 481.902C326.715 482.527 327.873 482.843 329.044 482.821V479.335C327.865 479.368 326.699 479.041 325.663 478.388L321.1 475.327L216.29 405.039C215.917 404.835 215.596 404.521 215.36 404.129C215.123 403.736 214.98 403.279 214.943 402.802Z" fill="white"/>
<path d="M329.103 455.906V476.274C329.885 476.302 330.66 476.089 331.349 475.657L339.623 470.084L402.968 427.618V406.371L329.103 455.906Z" fill="white"/>
<path d="M218.24 384.122V399.782C218.282 400.689 218.507 401.572 218.897 402.359C219.287 403.146 219.832 403.815 220.486 404.312L318.595 470.057L326.869 475.629C327.558 476.059 328.332 476.272 329.115 476.247V458.061L218.24 384.122Z" fill="#F0F0F0"/>
<path d="M403.015 427.59C403.078 426.548 403.412 425.552 403.973 424.735C404.787 423.492 405.808 422.451 406.975 421.674C407.946 420.968 409.057 420.562 410.202 420.494C410.972 420.487 411.723 420.771 412.341 421.304V400.098L403.039 406.343L403.015 427.59Z" fill="#455A64"/>
<path d="M406.739 421.853C405.661 422.592 404.721 423.571 403.973 424.735C403.412 425.552 403.078 426.548 403.015 427.59V407.331H406.727L406.739 421.853Z" fill="#F5F5F5"/>
<path d="M294.8 326.667L408.275 402.761V404.531C408.275 405.506 409.457 405.904 410.911 404.888C412.365 403.873 413.559 402.692 413.559 401.004L413.7 399.329L298.063 321.808L297.602 321.492C297.481 321.74 297.412 322.017 297.401 322.302V323.126C297.424 324.141 296.254 325.72 294.8 326.667Z" fill="#BA68C8"/>
<path opacity="0.6" d="M294.8 326.667L408.275 402.761V404.531C408.275 405.506 409.457 405.904 410.911 404.888C412.365 403.873 413.559 402.692 413.559 401.004L413.7 399.329L298.063 321.808L297.602 321.492C297.481 321.74 297.412 322.017 297.401 322.302V323.126C297.424 324.141 296.254 325.72 294.8 326.667Z" fill="white"/>
<path d="M332.519 453.641L406.655 403.927C407.589 403.365 408.452 402.898 408.819 403.118L408.334 402.802L294.859 326.708L293.535 325.816C292.941 325.619 292.317 325.573 291.705 325.679C291.093 325.786 290.508 326.043 289.989 326.433L216.432 375.763C214.576 377.012 214.576 379.043 216.432 380.292L325.817 453.641C326.857 454.246 328.004 454.561 329.168 454.561C330.331 454.561 331.479 454.246 332.519 453.641Z" fill="#BA68C8"/>
<path opacity="0.8" d="M332.519 453.641L406.655 403.927C407.589 403.365 408.452 402.898 408.819 403.118L408.334 402.802L294.859 326.708L293.535 325.816C292.941 325.619 292.317 325.573 291.705 325.679C291.093 325.786 290.508 326.043 289.989 326.433L216.432 375.763C214.576 377.012 214.576 379.043 216.432 380.292L325.817 453.641C326.857 454.246 328.004 454.561 329.168 454.561C330.331 454.561 331.479 454.246 332.519 453.641Z" fill="white"/>
<path d="M297.625 321.533L298.086 321.849L413.724 399.412C413.783 399.269 413.867 399.142 413.972 399.041L414.362 398.78L415.202 398.231L416.23 397.531C416.43 397.377 416.668 397.307 416.907 397.332C417.145 397.357 417.37 397.476 417.542 397.669C417.591 397.707 417.635 397.753 417.672 397.806C417.812 397.971 417.927 398.161 418.015 398.369C418.141 398.607 418.244 398.86 418.322 399.124C418.413 399.406 418.488 399.695 418.547 399.988C418.618 400.331 418.665 400.661 418.724 401.018C418.756 401.222 418.776 401.428 418.783 401.635C418.783 401.8 418.783 401.951 418.783 402.143C418.783 402.335 418.783 402.912 418.783 403.31V399.535C418.661 398.295 418.292 397.105 417.705 396.059C417.118 395.014 416.33 394.141 415.403 393.51L306.006 320.161C305.105 319.543 304.093 319.176 303.049 319.088C302.005 319 300.958 319.193 299.99 319.653L298.607 320.586L298.016 320.971C297.845 321.114 297.71 321.309 297.625 321.533Z" fill="#BA68C8"/>
<path opacity="0.8" d="M297.625 321.533L298.086 321.849L413.724 399.412C413.783 399.269 413.867 399.142 413.972 399.041L414.362 398.78L415.202 398.231L416.23 397.531C416.43 397.377 416.668 397.307 416.907 397.332C417.145 397.357 417.37 397.476 417.542 397.669C417.591 397.707 417.635 397.753 417.672 397.806C417.812 397.971 417.927 398.161 418.015 398.369C418.141 398.607 418.244 398.86 418.322 399.124C418.413 399.406 418.488 399.695 418.547 399.988C418.618 400.331 418.665 400.661 418.724 401.018C418.756 401.222 418.776 401.428 418.783 401.635C418.783 401.8 418.783 401.951 418.783 402.143C418.783 402.335 418.783 402.912 418.783 403.31V399.535C418.661 398.295 418.292 397.105 417.705 396.059C417.118 395.014 416.33 394.141 415.403 393.51L306.006 320.161C305.105 319.543 304.093 319.176 303.049 319.088C302.005 319 300.958 319.193 299.99 319.653L298.607 320.586L298.016 320.971C297.845 321.114 297.71 321.309 297.625 321.533Z" fill="white"/>
<path d="M332.519 453.655L337.105 450.567L389.835 415.237L406.667 403.955C407.849 403.131 408.842 402.843 408.901 403.269V404.147C408.901 405.135 410.083 405.135 411.537 404.147C412.076 403.875 412.549 403.451 412.912 402.915C413.275 402.378 413.517 401.745 413.618 401.072V400.112C413.6 399.897 413.626 399.682 413.694 399.481C413.762 399.281 413.869 399.102 414.008 398.959L414.398 398.698L415.237 398.149L416.265 397.449C416.465 397.295 416.703 397.225 416.942 397.25C417.181 397.275 417.405 397.393 417.577 397.586C417.626 397.624 417.67 397.67 417.707 397.723C417.795 397.831 417.871 397.951 417.932 398.08C417.982 398.14 418.022 398.21 418.05 398.286C418.176 398.524 418.279 398.777 418.357 399.041C418.448 399.324 418.523 399.612 418.582 399.906C418.653 400.249 418.7 400.578 418.759 400.935C418.791 401.139 418.811 401.346 418.818 401.553C418.818 401.718 418.818 401.869 418.818 402.061C418.818 402.253 418.818 402.829 418.818 403.227V416.459H416.218V403.227C416.218 402.912 416.218 402.596 416.218 402.294L416.147 401.539C416.153 401.517 416.153 401.493 416.147 401.471C415.911 403.872 413.937 406.014 412.223 407.139C411.271 407.836 410.179 408.234 409.055 408.292C408.188 408.305 407.347 407.948 406.691 407.29L406.454 407.441L406.005 407.757L339.623 452.269L332.519 457.127C331.495 457.735 330.359 458.042 329.209 458.02V454.533C330.358 454.561 331.495 454.26 332.519 453.655Z" fill="#BA68C8"/>
<path opacity="0.6" d="M332.519 453.655L337.105 450.567L389.835 415.237L406.667 403.955C407.849 403.131 408.842 402.843 408.901 403.269V404.147C408.901 405.135 410.083 405.135 411.537 404.147C412.076 403.875 412.549 403.451 412.912 402.915C413.275 402.378 413.517 401.745 413.618 401.072V400.112C413.6 399.897 413.626 399.682 413.694 399.481C413.762 399.281 413.869 399.102 414.008 398.959L414.398 398.698L415.237 398.149L416.265 397.449C416.465 397.295 416.703 397.225 416.942 397.25C417.181 397.275 417.405 397.393 417.577 397.586C417.626 397.624 417.67 397.67 417.707 397.723C417.795 397.831 417.871 397.951 417.932 398.08C417.982 398.14 418.022 398.21 418.05 398.286C418.176 398.524 418.279 398.777 418.357 399.041C418.448 399.324 418.523 399.612 418.582 399.906C418.653 400.249 418.7 400.578 418.759 400.935C418.791 401.139 418.811 401.346 418.818 401.553C418.818 401.718 418.818 401.869 418.818 402.061C418.818 402.253 418.818 402.829 418.818 403.227V416.459H416.218V403.227C416.218 402.912 416.218 402.596 416.218 402.294L416.147 401.539C416.153 401.517 416.153 401.493 416.147 401.471C415.911 403.872 413.937 406.014 412.223 407.139C411.271 407.836 410.179 408.234 409.055 408.292C408.188 408.305 407.347 407.948 406.691 407.29L406.454 407.441L406.005 407.757L339.623 452.269L332.519 457.127C331.495 457.735 330.359 458.042 329.209 458.02V454.533C330.358 454.561 331.495 454.26 332.519 453.655Z" fill="white"/>
<path d="M214.943 377.986V381.569C214.98 382.046 215.123 382.503 215.36 382.895C215.596 383.288 215.917 383.602 216.29 383.806L318.5 452.323L325.675 457.141C326.715 457.766 327.873 458.082 329.044 458.061V454.574C327.867 454.604 326.703 454.283 325.663 453.641L321.1 450.58L216.29 380.292C215.909 380.082 215.583 379.758 215.346 379.352C215.109 378.947 214.97 378.475 214.943 377.986Z" fill="#BA68C8"/>
<path opacity="0.1" d="M214.943 377.986V381.569C214.98 382.046 215.123 382.503 215.36 382.895C215.596 383.288 215.917 383.602 216.29 383.806L318.5 452.323L325.675 457.141C326.715 457.766 327.873 458.082 329.044 458.061V454.574C327.867 454.604 326.703 454.283 325.663 453.641L321.1 450.58L216.29 380.292C215.909 380.082 215.583 379.758 215.346 379.352C215.109 378.947 214.97 378.475 214.943 377.986Z" fill="white"/>
<path d="M289.895 326.433C290.414 326.043 290.999 325.786 291.61 325.679C292.222 325.573 292.846 325.619 293.441 325.816L294.765 326.708C296.219 325.72 297.389 324.141 297.389 323.167V322.343C297.4 322.059 297.469 321.781 297.59 321.533C297.683 321.31 297.826 321.121 298.004 320.984L298.595 320.6L299.978 319.667C300.946 319.207 301.993 319.013 303.037 319.101C304.081 319.19 305.093 319.557 305.994 320.175L415.391 393.523L415.509 393.606L338.311 445.365C337.613 445.778 336.842 445.993 336.059 445.993C335.276 445.993 334.504 445.778 333.807 445.365L223.701 370.822L289.895 326.433Z" fill="#263238"/>
<path d="M344.493 437.843L341.573 435.894C342.359 435.577 343.203 435.506 344.02 435.688C344.8 436.155 344.493 437.843 344.493 437.843Z" fill="#BA68C8"/>
<path opacity="0.7" d="M344.493 437.843L341.573 435.894C342.359 435.577 343.203 435.506 344.02 435.688C344.8 436.155 344.493 437.843 344.493 437.843Z" fill="black"/>
<path d="M346.502 435.743C346.17 435.325 345.767 434.991 345.319 434.763C344.87 434.535 344.386 434.417 343.896 434.417C343.406 434.417 342.922 434.535 342.473 434.763C342.025 434.991 341.622 435.325 341.29 435.743C338.441 438.776 338.299 441.782 337.117 441.741C335.935 441.7 335.935 417.516 335.935 417.516L347.176 429.608L346.502 435.743Z" fill="#BA68C8"/>
<path opacity="0.7" d="M346.502 435.743C346.17 435.325 345.767 434.991 345.319 434.763C344.87 434.535 344.386 434.417 343.896 434.417C343.406 434.417 342.922 434.535 342.473 434.763C342.025 434.991 341.622 435.325 341.29 435.743C338.441 438.776 338.299 441.782 337.117 441.741C335.935 441.7 335.935 417.516 335.935 417.516L347.176 429.608L346.502 435.743Z" fill="black"/>
<path d="M228.985 347.831L228.796 347.708L230.593 346.5L307.992 294.618L420.769 379.359C422.625 380.608 422.956 382.42 421.502 383.38L418.866 385.151L346.526 433.725L346.006 433.286L228.985 347.831Z" fill="#BA68C8"/>
<path opacity="0.5" d="M228.985 347.831L228.796 347.708L230.593 346.5L307.992 294.618L420.769 379.359C422.625 380.608 422.956 382.42 421.502 383.38L418.866 385.151L346.526 433.725L346.006 433.286L228.985 347.831Z" fill="black"/>
<path d="M336.869 406.069L342.472 404.696V430.774C339.091 432.449 336.94 434.014 336.562 437.294L336.869 406.069Z" fill="#455A64"/>
<path d="M344.942 431.118L416.608 383.078C417.265 382.583 417.812 381.915 418.204 381.127C418.596 380.34 418.823 379.457 418.866 378.549V352.869L346.502 401.8C346.502 401.8 345.639 405.437 343.074 406.576C340.509 407.716 342.471 408.882 342.471 408.882V430.843C344.682 430.472 344.942 431.118 344.942 431.118Z" fill="#F0F0F0"/>
<path d="M338.334 405.176C339.079 404.682 339.67 404.655 339.67 405.176V405.986C339.67 406.892 340.852 406.851 342.318 405.863C343.784 404.874 344.966 403.365 344.966 402.459V401.635C344.966 401.169 345.97 400.125 347.2 399.302L230.604 321.726L228.796 322.933C228.545 323.242 228.388 323.637 228.347 324.059V324.882C228.347 325.788 227.165 327.312 225.711 328.286C224.257 329.261 223.063 329.316 223.063 328.41V327.586C223.063 327.12 222.472 327.161 221.739 327.655L338.334 405.176Z" fill="#BA68C8"/>
<path opacity="0.6" d="M338.334 405.176C339.079 404.682 339.67 404.655 339.67 405.176V405.986C339.67 406.892 340.852 406.851 342.318 405.863C343.784 404.874 344.966 403.365 344.966 402.459V401.635C344.966 401.169 345.97 400.125 347.2 399.302L230.604 321.726L228.796 322.933C228.545 323.242 228.388 323.637 228.347 324.059V324.882C228.347 325.788 227.165 327.312 225.711 328.286C224.257 329.261 223.063 329.316 223.063 328.41V327.586C223.063 327.12 222.472 327.161 221.739 327.655L338.334 405.176Z" fill="black"/>
<path d="M228.985 323.002L228.796 322.878L230.593 321.671L307.992 269.788L420.769 345.416C422.625 346.665 422.956 348.463 421.502 349.437L418.866 351.194L346.502 401.8L228.985 323.002Z" fill="#BA68C8"/>
<path opacity="0.5" d="M228.985 323.002L228.796 322.878L230.593 321.671L307.992 269.788L420.769 345.416C422.625 346.665 422.956 348.463 421.502 349.437L418.866 351.194L346.502 401.8L228.985 323.002Z" fill="black"/>
<path d="M223.04 326.749L339.611 404.902L335.533 408.608L219.399 330.757C219.682 329.756 220.222 328.879 220.947 328.245L223.04 326.749Z" fill="#BA68C8"/>
<path opacity="0.5" d="M223.04 326.749L339.611 404.902L335.533 408.608L219.399 330.757C219.682 329.756 220.222 328.879 220.947 328.245L223.04 326.749Z" fill="black"/>
<path d="M219.789 365.688C219.717 365.636 219.65 365.577 219.588 365.51C219.535 365.479 219.489 365.431 219.458 365.373C219.363 365.265 219.283 365.139 219.222 365.002C219.169 364.95 219.129 364.884 219.103 364.81C218.977 364.574 218.878 364.32 218.808 364.055C218.71 363.77 218.631 363.476 218.572 363.176C218.501 362.847 218.453 362.518 218.406 362.161C218.365 361.958 218.341 361.751 218.335 361.543V361.035C218.335 360.665 218.335 360.267 218.335 359.869V337.51C218.314 335.162 218.683 332.832 219.423 330.647L335.557 408.498L336.041 443.525L219.919 365.647L219.789 365.688Z" fill="#BA68C8"/>
<path opacity="0.7" d="M219.789 365.688C219.717 365.636 219.65 365.577 219.588 365.51C219.535 365.479 219.489 365.431 219.458 365.373C219.363 365.265 219.283 365.139 219.222 365.002C219.169 364.95 219.129 364.884 219.103 364.81C218.977 364.574 218.878 364.32 218.808 364.055C218.71 363.77 218.631 363.476 218.572 363.176C218.501 362.847 218.453 362.518 218.406 362.161C218.365 361.958 218.341 361.751 218.335 361.543V361.035C218.335 360.665 218.335 360.267 218.335 359.869V337.51C218.314 335.162 218.683 332.832 219.423 330.647L335.557 408.498L336.041 443.525L219.919 365.647L219.789 365.688Z" fill="black"/>
<path opacity="0.79" d="M335.474 408.553C335.474 408.553 244.009 358.853 235.687 354.296C230.191 351.29 227.496 357.604 228.796 364.137C229.978 369.847 234.789 375.735 234.789 375.735L219.836 365.702C219.764 365.65 219.697 365.59 219.635 365.523C219.582 365.493 219.537 365.445 219.505 365.386C219.41 365.278 219.33 365.153 219.269 365.016C219.217 364.964 219.176 364.898 219.151 364.823C219.024 364.588 218.925 364.334 218.855 364.069C218.757 363.783 218.678 363.49 218.619 363.19C218.548 362.861 218.501 362.531 218.453 362.174C218.412 361.972 218.389 361.765 218.382 361.557V361.049C218.382 360.678 218.382 360.28 218.382 359.882V337.51C218.361 335.162 218.73 332.832 219.47 330.647L335.474 408.553Z" fill="#263238"/>
<path d="M334.398 415.374H336.999C336.938 413.092 337.369 410.827 338.252 408.786C338.87 409.319 339.621 409.603 340.391 409.596C341.536 409.528 342.647 409.122 343.618 408.416C344.788 407.643 345.81 406.602 346.621 405.355C346.682 405.269 346.738 405.177 346.786 405.08C347.245 404.321 347.511 403.427 347.554 402.5L416.195 356.492L418.559 354.914L421.537 352.924C421.797 352.786 422.019 352.569 422.179 352.296C422.339 352.022 422.432 351.703 422.448 351.373V347.845C422.435 348.181 422.343 348.507 422.183 348.788C422.023 349.068 421.799 349.293 421.537 349.437L413.653 354.708L347.283 399.22C346.041 400.043 345.037 401.086 345.037 401.553V402.376C344.963 402.898 344.748 403.379 344.422 403.749C343.852 404.545 343.164 405.214 342.389 405.725C340.923 406.714 339.741 406.755 339.741 405.849V405.039C339.741 404.559 339.162 404.6 338.417 405.039L337.105 405.931C335.58 407.029 334.398 411.216 334.398 415.374Z" fill="#BA68C8"/>
<path d="M336.998 415.374V437.733C336.998 438.049 336.998 438.365 336.998 438.667L337.058 439.421C337.052 439.444 337.052 439.468 337.058 439.49C337.294 437.088 339.268 434.947 340.982 433.821C341.937 433.122 343.033 432.725 344.162 432.669C345.029 432.656 345.87 433.012 346.526 433.67L346.75 433.52L347.211 433.204L413.582 388.692L417.4 386.139L418.487 385.398L421.703 383.243C421.914 383.089 422.089 382.877 422.213 382.626C422.337 382.374 422.405 382.091 422.412 381.802V385.329C422.403 385.603 422.338 385.87 422.223 386.108C422.108 386.347 421.946 386.55 421.75 386.702C421.372 386.963 420.97 387.21 420.568 387.498L419.823 388.006L418.547 388.857C418.263 389.063 418.003 389.241 417.755 389.392C417.506 389.543 417.365 389.667 417.199 389.763L416.218 390.435L363.488 425.765L346.656 437.047C345.474 437.871 344.493 438.159 344.422 437.733C344.418 437.683 344.418 437.632 344.422 437.582V436.8C344.422 435.812 343.24 435.812 341.786 436.8C341.247 437.072 340.774 437.495 340.411 438.032C340.048 438.569 339.805 439.202 339.705 439.874V440.835C339.723 441.049 339.696 441.265 339.629 441.466C339.561 441.666 339.454 441.845 339.315 441.988L338.925 442.249L338.098 442.798L337.069 443.498C336.87 443.652 336.631 443.722 336.393 443.697C336.154 443.672 335.93 443.554 335.757 443.361C335.704 443.33 335.659 443.282 335.627 443.223C335.532 443.12 335.452 443 335.391 442.867C335.345 442.808 335.305 442.744 335.273 442.674C335.146 442.439 335.047 442.185 334.977 441.92C334.877 441.64 334.798 441.35 334.741 441.055C334.67 440.712 334.623 440.382 334.575 440.025C334.534 439.823 334.51 439.616 334.504 439.408C334.504 439.243 334.504 439.092 334.504 438.9C334.504 438.708 334.504 438.131 334.504 437.733V415.374H336.998Z" fill="#BA68C8"/>
<g opacity="0.6">
<path d="M334.398 415.374H336.999C336.938 413.092 337.369 410.827 338.252 408.786C338.87 409.319 339.621 409.603 340.391 409.596C341.536 409.528 342.647 409.122 343.618 408.416C344.788 407.643 345.81 406.602 346.621 405.355C346.682 405.269 346.738 405.177 346.786 405.08C347.245 404.321 347.511 403.427 347.554 402.5L416.195 356.492L418.559 354.914L421.537 352.924C421.797 352.786 422.019 352.569 422.179 352.296C422.339 352.022 422.432 351.703 422.448 351.373V347.845C422.435 348.181 422.343 348.507 422.183 348.788C422.023 349.068 421.799 349.293 421.537 349.437L413.653 354.708L347.283 399.22C346.041 400.043 345.037 401.086 345.037 401.553V402.376C344.963 402.898 344.748 403.379 344.422 403.749C343.852 404.545 343.164 405.214 342.389 405.725C340.923 406.714 339.741 406.755 339.741 405.849V405.039C339.741 404.559 339.162 404.6 338.417 405.039L337.105 405.931C335.58 407.029 334.398 411.216 334.398 415.374Z" fill="black"/>
<path d="M336.999 415.374V437.733C336.999 438.049 336.999 438.365 336.999 438.667L337.058 439.421C337.052 439.444 337.052 439.468 337.058 439.49C337.294 437.088 339.268 434.947 340.982 433.822C341.938 433.123 343.034 432.725 344.162 432.669C345.029 432.656 345.87 433.012 346.526 433.671L346.751 433.52L347.212 433.204L413.582 388.692L417.4 386.139L418.488 385.398L421.703 383.243C421.914 383.089 422.09 382.877 422.213 382.626C422.337 382.374 422.405 382.091 422.412 381.802V385.329C422.403 385.603 422.339 385.87 422.223 386.108C422.108 386.347 421.946 386.55 421.75 386.702C421.372 386.963 420.97 387.21 420.568 387.498L419.824 388.006L418.547 388.857C418.263 389.063 418.003 389.241 417.755 389.392C417.507 389.543 417.365 389.667 417.2 389.763L416.218 390.435L363.488 425.765L346.656 437.047C345.474 437.871 344.493 438.159 344.422 437.733C344.418 437.683 344.418 437.633 344.422 437.582V436.8C344.422 435.812 343.24 435.812 341.786 436.8C341.247 437.072 340.775 437.495 340.412 438.032C340.049 438.569 339.806 439.202 339.706 439.874V440.835C339.723 441.049 339.697 441.265 339.629 441.466C339.561 441.666 339.454 441.845 339.316 441.988L338.926 442.249L338.098 442.798L337.07 443.498C336.87 443.652 336.632 443.722 336.393 443.697C336.154 443.672 335.93 443.554 335.758 443.361C335.704 443.33 335.659 443.282 335.628 443.223C335.533 443.12 335.453 443 335.391 442.867C335.345 442.808 335.306 442.744 335.273 442.674C335.147 442.439 335.047 442.185 334.978 441.92C334.878 441.64 334.799 441.35 334.741 441.055C334.67 440.712 334.623 440.382 334.576 440.025C334.534 439.823 334.51 439.616 334.505 439.408C334.505 439.243 334.505 439.092 334.505 438.9C334.505 438.708 334.505 438.131 334.505 437.733V415.374H336.999Z" fill="black"/>
</g>
<path d="M219.34 330.688L329.718 404.696L413.145 348.765C413.418 348.659 413.655 348.456 413.823 348.185C413.991 347.914 414.081 347.589 414.081 347.255C414.081 346.921 413.991 346.596 413.823 346.325C413.655 346.054 413.418 345.851 413.145 345.745L303.926 272.506L230.64 321.671L228.832 322.892C228.587 323.199 228.434 323.588 228.394 324.004V324.827C228.394 325.733 227.212 327.257 225.758 328.231C225.684 328.288 225.605 328.334 225.522 328.369L223.087 326.735L221.905 327.504L221.739 327.6L220.888 328.176C220.164 328.812 219.624 329.688 219.34 330.688Z" fill="#263238"/>
<path d="M406.987 349.314L403.665 347.255L406.691 346.418C406.982 346.812 407.165 347.298 407.218 347.814C407.27 348.329 407.19 348.851 406.987 349.314Z" fill="#E0E0E0"/>
<g style="mix-blend-mode:multiply" opacity="0.5">
<path d="M406.987 349.314L403.665 347.255L406.691 346.418C406.982 346.812 407.165 347.298 407.218 347.814C407.27 348.329 407.19 348.851 406.987 349.314Z" fill="#E0E0E0"/>
</g>
<path d="M318.961 400.784C320.007 401.4 321.163 401.721 322.336 401.721C323.508 401.721 324.665 401.4 325.71 400.784L401.526 350L288.051 266.7L285.392 264.916L209.588 322.892C207.732 324.141 207.732 326.173 209.588 327.422L318.961 400.784Z" fill="#BA68C8"/>
<path d="M347.424 297.528L404.705 342.602L373.866 315.151L390.982 303.677L410.887 317.059V340.928C410.887 342.959 408.937 345.827 408.228 345.361C406.916 345.729 405.64 346.253 404.421 346.926C402.433 348.238 400.588 349.823 398.925 351.647L338.181 303.704L347.424 297.528Z" fill="#BA68C8"/>
<path opacity="0.2" d="M347.424 297.528L404.705 342.602L373.866 315.151L390.982 303.677L410.887 317.059V340.928C410.887 342.959 408.937 345.827 408.228 345.361C406.916 345.729 405.64 346.253 404.421 346.926C402.433 348.238 400.588 349.823 398.925 351.647L338.181 303.704L347.424 297.528Z" fill="black"/>
<path d="M322.33 370.986V398.547C323.115 398.567 323.892 398.355 324.587 397.929L332.861 392.357L396.218 349.89V321.424L322.33 370.986Z" fill="white"/>
<path d="M211.468 299.216V322.096C211.511 323.002 211.737 323.884 212.127 324.671C212.517 325.457 213.06 326.127 213.713 326.626L311.822 392.371L320.096 397.943C320.787 398.367 321.56 398.579 322.342 398.561V373.141L211.468 299.216Z" fill="#F0F0F0"/>
<path d="M396.254 349.89C396.312 348.849 396.642 347.853 397.2 347.035C398.007 345.785 399.029 344.743 400.202 343.974C401.178 343.268 402.292 342.862 403.441 342.794C404.185 342.706 404.934 342.909 405.568 343.371V315.178L396.266 321.424L396.254 349.89Z" fill="#455A64"/>
<path d="M399.965 344.139C398.894 344.892 397.955 345.875 397.2 347.035C396.642 347.853 396.312 348.849 396.254 349.89V322.439H399.954L399.965 344.139Z" fill="#F5F5F5"/>
<path d="M288.039 241.788L401.514 317.896V319.653C401.514 320.641 402.696 321.026 404.15 320.024C405.603 319.022 406.809 317.814 406.809 316.126L406.951 314.451L291.313 236.93L290.84 236.614C290.721 236.867 290.657 237.149 290.651 237.437V238.247C290.663 239.222 289.493 240.8 288.039 241.788Z" fill="#BA68C8"/>
<path opacity="0.2" d="M288.039 241.788L401.514 317.896V319.653C401.514 320.641 402.696 321.026 404.15 320.024C405.603 319.022 406.809 317.814 406.809 316.126L406.951 314.451L291.313 236.93L290.84 236.614C290.721 236.867 290.657 237.149 290.651 237.437V238.247C290.663 239.222 289.493 240.8 288.039 241.788Z" fill="black"/>
<path d="M325.71 368.722L399.894 319.022C400.84 318.445 401.703 317.978 402.058 318.198L401.573 317.896L288.098 241.788L286.763 240.91C286.169 240.705 285.543 240.654 284.931 240.761C284.318 240.868 283.733 241.129 283.217 241.528L209.588 290.843C207.732 292.092 207.732 294.137 209.588 295.373L318.985 368.722C320.027 369.333 321.179 369.652 322.348 369.652C323.516 369.652 324.668 369.333 325.71 368.722Z" fill="#BA68C8"/>
<path d="M290.853 236.614L291.325 236.93L406.987 314.451C407.045 314.308 407.13 314.181 407.235 314.08L407.625 313.833L408.452 313.271L409.481 312.571C409.681 312.419 409.919 312.35 410.157 312.375C410.395 312.4 410.619 312.517 410.793 312.708C410.842 312.746 410.885 312.792 410.923 312.845C411.06 313.016 411.179 313.205 411.277 313.408C411.399 313.646 411.498 313.899 411.573 314.163C411.666 314.45 411.745 314.744 411.809 315.041C411.868 315.371 411.928 315.7 411.975 316.057C412.011 316.265 412.035 316.476 412.046 316.688V317.182C412.046 317.553 412.046 317.951 412.046 318.363V314.588C411.927 313.345 411.56 312.152 410.973 311.103C410.386 310.054 409.595 309.18 408.665 308.549L299.269 235.2C298.367 234.584 297.354 234.218 296.31 234.132C295.266 234.047 294.22 234.243 293.252 234.706L291.869 235.639L291.29 236.037C291.1 236.177 290.948 236.377 290.853 236.614Z" fill="#BA68C8"/>
<path d="M325.711 400.784L330.285 397.71L398.925 351.688C398.986 350.648 399.315 349.653 399.871 348.833C400.682 347.587 401.704 346.545 402.873 345.773C403.848 345.077 404.957 344.675 406.1 344.606C406.872 344.588 407.626 344.873 408.24 345.416C409.122 343.369 409.552 341.101 409.493 338.814H412.093C412.093 342.931 410.911 347.159 409.457 348.133L408.145 349.026C407.4 349.52 406.821 349.547 406.821 349.026V348.216C406.821 347.31 405.639 347.351 404.162 348.326C402.684 349.3 401.526 350.837 401.526 351.743V352.553C401.526 353.02 400.521 354.063 399.28 354.9L332.897 399.412L325.711 404.229C324.67 404.854 323.513 405.17 322.342 405.149V401.663C323.511 401.709 324.671 401.407 325.711 400.784Z" fill="#BA68C8"/>
<path opacity="0.4" d="M325.711 400.784L330.285 397.71L398.925 351.688C398.986 350.648 399.315 349.653 399.871 348.833C400.682 347.587 401.704 346.545 402.873 345.773C403.848 345.077 404.957 344.675 406.1 344.606C406.872 344.588 407.626 344.873 408.24 345.416C409.122 343.369 409.552 341.101 409.493 338.814H412.093C412.093 342.931 410.911 347.159 409.457 348.133L408.145 349.026C407.4 349.52 406.821 349.547 406.821 349.026V348.216C406.821 347.31 405.639 347.351 404.162 348.326C402.684 349.3 401.526 350.837 401.526 351.743V352.553C401.526 353.02 400.521 354.063 399.28 354.9L332.897 399.412L325.711 404.229C324.67 404.854 323.513 405.17 322.342 405.149V401.663C323.511 401.709 324.671 401.407 325.711 400.784Z" fill="black"/>
<path d="M325.687 368.735L330.261 365.661L382.992 330.331L399.894 319.022C401.077 318.212 402.069 317.924 402.14 318.349V319.241C402.14 320.216 403.322 320.216 404.776 319.241C405.317 318.968 405.79 318.542 406.153 318.003C406.517 317.464 406.758 316.828 406.857 316.153V315.192C406.839 314.978 406.866 314.762 406.933 314.562C407.001 314.361 407.108 314.182 407.247 314.039L407.637 313.792L408.464 313.229L409.493 312.529C409.693 312.378 409.931 312.309 410.169 312.334C410.407 312.359 410.631 312.476 410.805 312.667C410.853 312.705 410.897 312.751 410.935 312.804C411.026 312.916 411.106 313.04 411.171 313.175C411.216 313.234 411.256 313.298 411.289 313.367C411.411 313.605 411.51 313.858 411.585 314.122C411.678 314.409 411.757 314.702 411.821 315C411.88 315.329 411.939 315.659 411.987 316.016C412.023 316.224 412.046 316.435 412.058 316.647V317.141C412.058 317.512 412.058 317.91 412.058 318.322V338.745H409.457V318.431C409.457 318.116 409.457 317.786 409.457 317.484L409.398 316.729C409.162 319.131 407.188 321.273 405.462 322.398C404.512 323.1 403.419 323.497 402.294 323.551C401.427 323.564 400.586 323.207 399.93 322.549L399.705 322.7L399.244 323.016L332.862 367.527L325.675 372.345C324.648 372.955 323.507 373.261 322.354 373.237V369.751C323.52 369.742 324.666 369.392 325.687 368.735Z" fill="#BA68C8"/>
<path opacity="0.4" d="M325.687 368.735L330.261 365.661L382.992 330.331L399.894 319.022C401.077 318.212 402.069 317.924 402.14 318.349V319.241C402.14 320.216 403.322 320.216 404.776 319.241C405.317 318.968 405.79 318.542 406.153 318.003C406.517 317.464 406.758 316.828 406.857 316.153V315.192C406.839 314.978 406.866 314.762 406.933 314.562C407.001 314.361 407.108 314.182 407.247 314.039L407.637 313.792L408.464 313.229L409.493 312.529C409.693 312.378 409.931 312.309 410.169 312.334C410.407 312.359 410.631 312.476 410.805 312.667C410.853 312.705 410.897 312.751 410.935 312.804C411.026 312.916 411.106 313.04 411.171 313.175C411.216 313.234 411.256 313.298 411.289 313.367C411.411 313.605 411.51 313.858 411.585 314.122C411.678 314.409 411.757 314.702 411.821 315C411.88 315.329 411.939 315.659 411.987 316.016C412.023 316.224 412.046 316.435 412.058 316.647V317.141C412.058 317.512 412.058 317.91 412.058 318.322V338.745H409.457V318.431C409.457 318.116 409.457 317.786 409.457 317.484L409.398 316.729C409.162 319.131 407.188 321.273 405.462 322.398C404.512 323.1 403.419 323.497 402.294 323.551C401.427 323.564 400.586 323.207 399.93 322.549L399.705 322.7L399.244 323.016L332.862 367.527L325.675 372.345C324.648 372.955 323.507 373.261 322.354 373.237V369.751C323.52 369.742 324.666 369.392 325.687 368.735Z" fill="black"/>
<path d="M208.181 293.067V296.608C208.217 297.083 208.359 297.54 208.593 297.932C208.828 298.325 209.146 298.639 209.517 298.845L311.739 367.363L318.913 372.18C319.95 372.803 321.103 373.119 322.27 373.1V369.614C321.097 369.644 319.937 369.322 318.902 368.68L314.339 365.62L209.588 295.373C209.191 295.18 208.848 294.862 208.599 294.454C208.351 294.046 208.206 293.566 208.181 293.067Z" fill="#BA68C8"/>
<path opacity="0.2" d="M208.181 293.067V296.608C208.217 297.083 208.359 297.54 208.593 297.932C208.828 298.325 209.146 298.639 209.517 298.845L311.739 367.363L318.913 372.18C319.95 372.803 321.103 373.119 322.27 373.1V369.614C321.097 369.644 319.937 369.322 318.902 368.68L314.339 365.62L209.588 295.373C209.191 295.18 208.848 294.862 208.599 294.454C208.351 294.046 208.206 293.566 208.181 293.067Z" fill="black"/>
<path d="M208.181 325.102V328.643C208.217 329.119 208.359 329.575 208.593 329.968C208.828 330.36 209.146 330.675 209.517 330.88L311.786 399.412L318.961 404.229C319.997 404.852 321.151 405.168 322.318 405.149V401.663C321.144 401.693 319.984 401.371 318.949 400.729L314.386 397.669L209.588 327.408C209.191 327.215 208.848 326.897 208.599 326.489C208.351 326.082 208.206 325.601 208.181 325.102Z" fill="#BA68C8"/>
<path opacity="0.2" d="M208.181 325.102V328.643C208.217 329.119 208.359 329.575 208.593 329.968C208.828 330.36 209.146 330.675 209.517 330.88L311.786 399.412L318.961 404.229C319.997 404.852 321.151 405.168 322.318 405.149V401.663C321.144 401.693 319.984 401.371 318.949 400.729L314.386 397.669L209.588 327.408C209.191 327.215 208.848 326.897 208.599 326.489C208.351 326.082 208.206 325.601 208.181 325.102Z" fill="black"/>
<path d="M255.392 200.571L244.541 223.026L260.356 232.798L271.869 212.896L255.392 200.571Z" fill="#FFA8A7"/>
<path d="M293.89 149.992C287.862 148.798 278.737 148.483 272.803 160.3C266.869 172.118 254.08 201.284 254.08 201.284C254.08 201.284 261.55 212.512 272.366 214.557L290.037 182L293.89 149.992Z" fill="#BA68C8"/>
<path d="M279.647 424.996H266.148V451.829H279.647V424.996Z" fill="#FFA8A7"/>
<path d="M240.569 418.463L227.07 418.998L226.396 390.6L239.883 390.065L240.569 418.463Z" fill="#FFA8A7"/>
<path d="M266.148 444.088V441.851C264.859 442.496 261.857 455.796 256.503 461.465C252.247 465.98 246.443 471.182 244.966 476.206C243.429 481.435 253.051 484.331 257.023 483.508C261.644 482.561 269.658 478.786 271.668 475.272C273.677 471.759 274.623 466.612 276.254 464.045C277.885 461.478 281.656 458.555 282.543 455.631C283.027 453.998 282.448 450.429 281.774 447.396C281.148 444.651 280.462 441.576 279.647 441.837V443.539C278.666 444.802 275.959 446.051 272.897 446.188C270.923 446.298 266.136 445.845 266.148 444.088Z" fill="#263238"/>
<path d="M226.928 414.167C226.231 414.167 225.664 415.347 224.115 417.282C221.805 419.992 219.12 422.233 216.172 423.912C211.113 426.863 201.314 431.378 196.846 433.725C194.068 435.18 194.198 439.078 197.07 441.302C199.943 443.525 206.869 445.118 215.203 442.949C219.73 441.769 225.64 436.91 229.387 437.171C233.134 437.431 240.12 437.376 242.874 435.167C245.628 432.957 244.529 428.304 243.749 424.186C242.897 419.767 241.68 413 240.415 413.302V414.674C238.796 417.529 230.533 418.696 226.964 416.596L226.928 414.167Z" fill="#263238"/>
<path d="M334.02 261.814C336.975 286.039 332.992 290.637 313.169 313.888C302.531 326.365 285.332 344.661 285.332 344.661C285.332 344.661 285.581 352.402 285.711 369.751C285.841 385.027 280.344 434.741 280.344 434.741C280.344 434.741 271.384 439.119 265.238 434.576C265.238 434.576 262.46 397.586 260.959 378.302C258.926 352.224 257.862 339.075 259.009 333.461C260.025 328.506 280.202 298.914 284.859 290.624L241.976 319.557C242.807 326.888 243.226 334.274 243.229 341.669C242.756 362.408 240.557 403.831 240.557 403.831C240.557 403.831 230.746 408.923 225.876 404.531C225.876 404.531 213.524 313.943 213.524 306.504C213.524 295.208 255.77 261.484 263.772 253.633C268.335 249.159 273.417 244.314 273.417 244.314L334.02 261.814Z" fill="#455A64"/>
<path d="M284.86 290.637C280.349 286.397 276.954 280.771 275.061 274.4C275.297 278.557 275.807 282.687 276.585 286.753C277.767 292.133 241.976 319.557 241.976 319.557L284.86 290.637Z" fill="#37474F"/>
<path d="M308.694 106.668C311.108 94.704 304.714 82.7326 294.411 79.9288C284.108 77.1249 273.798 84.5504 271.383 96.514C268.969 108.478 275.363 120.449 285.666 123.253C295.969 126.057 306.279 118.631 308.694 106.668Z" fill="#263238"/>
<path d="M330.297 163.471C330.297 163.471 335.025 167.973 335.025 182.192V212.896L334.351 264.531C324.895 276.486 282.342 271.957 271.81 245.879C271.81 245.879 271.893 191.375 271.893 179.159C271.893 166.943 277.803 151.09 293.878 149.992L314.706 155.62L330.297 163.471Z" fill="#263238"/>
<path d="M323.157 117.408C323.157 117.408 320.048 134.345 318.807 137.132C317.979 138.849 316.611 140.128 314.989 140.7L315.202 128.786L323.157 117.408Z" fill="#263238"/>
<path d="M319.256 93.1414C320.336 93.0006 321.428 93.146 322.452 93.5669C323.476 93.9877 324.404 94.6729 325.167 95.5708C327.72 98.6042 326.289 108.102 323.11 117.408L317.259 118.19L319.256 93.1414Z" fill="#263238"/>
<path d="M315.557 118.19C316.739 119 318.405 116.392 319.847 114.635C321.289 112.879 326.018 110.518 328.37 116.241C330.722 121.965 326.289 129.871 322.578 131.23C316.171 133.563 315.202 128.786 315.202 128.786L314.717 155.62C309.197 162.784 290.32 161.11 293.878 154.906V146.671C293.878 146.671 288.075 147.7 285.249 147.192C280.521 146.341 277.566 142.032 276.136 136.102C273.843 126.59 272.968 118.918 274.954 100.21C277.093 79.7042 297.625 79.4983 308.713 87.5963C319.8 95.6943 315.557 118.19 315.557 118.19Z" fill="#FFA8A7"/>
<path d="M299.233 122.885H298.24C296.506 122.885 294.843 122.085 293.618 120.661C292.392 119.238 291.703 117.307 291.703 115.294C291.703 113.281 292.392 111.351 293.618 109.927C294.843 108.504 296.506 107.704 298.24 107.704H299.244C300.978 107.704 302.641 108.504 303.867 109.927C305.092 111.351 305.781 113.281 305.781 115.294C305.781 117.307 305.092 119.238 303.867 120.661C302.641 122.085 300.978 122.885 299.244 122.885H299.233ZM298.24 108.981C296.798 108.981 295.415 109.646 294.395 110.83C293.375 112.014 292.802 113.62 292.802 115.294C292.802 116.969 293.375 118.575 294.395 119.759C295.415 120.943 296.798 121.608 298.24 121.608H299.244C300.687 121.608 302.07 120.943 303.089 119.759C304.109 118.575 304.682 116.969 304.682 115.294C304.682 113.62 304.109 112.014 303.089 110.83C302.07 109.646 300.687 108.981 299.244 108.981H298.24Z" fill="#263238"/>
<path d="M279.328 122.885H278.323C276.59 122.885 274.927 122.085 273.701 120.661C272.475 119.238 271.787 117.307 271.787 115.294C271.787 113.281 272.475 111.351 273.701 109.927C274.927 108.504 276.59 107.704 278.323 107.704H279.328C281.062 107.704 282.724 108.504 283.95 109.927C285.176 111.351 285.865 113.281 285.865 115.294C285.865 117.307 285.176 119.238 283.95 120.661C282.724 122.085 281.062 122.885 279.328 122.885ZM278.323 108.981C276.881 108.981 275.498 109.646 274.478 110.83C273.459 112.014 272.886 113.62 272.886 115.294C272.886 116.969 273.459 118.575 274.478 119.759C275.498 120.943 276.881 121.608 278.323 121.608H279.328C280.77 121.608 282.153 120.943 283.173 119.759C284.192 118.575 284.765 116.969 284.765 115.294C284.765 113.62 284.192 112.014 283.173 110.83C282.153 109.646 280.77 108.981 279.328 108.981H278.323Z" fill="#263238"/>
<path d="M291.774 113.798C291.376 113.169 290.856 112.657 290.257 112.302C289.658 111.947 288.996 111.759 288.323 111.753C287.763 111.688 287.197 111.778 286.673 112.017C286.149 112.255 285.681 112.636 285.309 113.126L284.434 112.357C284.913 111.7 285.523 111.19 286.212 110.871C286.9 110.553 287.646 110.436 288.382 110.532C289.234 110.541 290.072 110.787 290.827 111.247C291.581 111.708 292.23 112.371 292.72 113.181L291.774 113.798Z" fill="#263238"/>
<path d="M319.068 113.743H305.167V115.02H319.068V113.743Z" fill="#263238"/>
<path d="M315.557 120.483C316.148 120.483 318.382 116.173 319.848 114.636C321.869 112.494 319.257 93.1414 319.257 93.1414C319.257 93.1414 321.207 88.3238 317.306 83.3552C314.54 79.814 309.907 79.4159 301.999 77.9748C297.85 77.2199 291.562 75.861 287.413 74.9689C282.472 73.8983 278.37 72.7728 274.883 76.3414C273.514 77.7192 272.547 79.5554 272.113 81.5978C271.679 83.6401 271.8 85.7883 272.46 87.7473C273.461 90.1905 275.242 92.0856 277.425 93.0316C277.425 93.0316 279.576 95.2551 287.082 96.312C294.588 97.3689 306.278 96.1198 307.874 95.8591C310.049 95.5159 310.51 97.9591 311.692 104.657C312.72 110.49 313.607 120.441 315.557 120.483Z" fill="#263238"/>
<path d="M319.245 94.7061L326.337 90.2728C326.11 89.7192 325.788 89.2248 325.392 88.8193C324.996 88.4137 324.533 88.1055 324.032 87.9131C323.531 87.7207 323.001 87.6482 322.475 87.6999C321.948 87.7516 321.437 87.9265 320.97 88.214C320.022 88.8346 319.315 89.8534 318.994 91.061C318.673 92.2685 318.763 93.573 319.245 94.7061Z" fill="#263238"/>
<path d="M293.89 146.739C293.89 146.739 304.41 144.283 308.075 142.018C310.237 140.707 312.008 138.669 313.157 136.171C312.601 138.659 311.62 140.993 310.273 143.034C307.578 147.028 293.878 149.965 293.878 149.965L293.89 146.739Z" fill="#F28F8F"/>
<path d="M296.419 115.143C296.436 115.625 296.574 116.091 296.816 116.483C297.059 116.874 297.396 117.174 297.784 117.345C298.173 117.516 298.596 117.55 299.001 117.443C299.406 117.337 299.775 117.094 300.062 116.746C300.35 116.397 300.542 115.959 300.616 115.484C300.69 115.009 300.642 114.52 300.477 114.077C300.313 113.634 300.041 113.256 299.693 112.992C299.346 112.728 298.939 112.588 298.523 112.59C298.241 112.598 297.962 112.669 297.704 112.801C297.445 112.934 297.211 113.124 297.016 113.361C296.821 113.598 296.667 113.877 296.565 114.183C296.463 114.489 296.413 114.815 296.419 115.143Z" fill="#263238"/>
<path d="M299.8 105.014L304.316 107.896C304.62 107.182 304.681 106.361 304.486 105.598C304.291 104.834 303.854 104.184 303.264 103.779C302.968 103.589 302.642 103.47 302.306 103.429C301.969 103.389 301.629 103.427 301.306 103.542C300.983 103.658 300.683 103.847 300.424 104.1C300.166 104.353 299.953 104.664 299.8 105.014Z" fill="#263238"/>
<path d="M294.848 132.039L290.037 134.139C290.141 134.514 290.308 134.861 290.53 135.159C290.752 135.457 291.024 135.7 291.328 135.873C291.633 136.046 291.965 136.146 292.303 136.166C292.642 136.187 292.981 136.128 293.3 135.992C293.948 135.694 294.472 135.116 294.76 134.379C295.049 133.641 295.081 132.803 294.848 132.039Z" fill="#F28F8F"/>
<path d="M277.082 107.155L281.195 103.49C281.004 103.171 280.759 102.899 280.474 102.692C280.19 102.486 279.873 102.348 279.541 102.288C279.21 102.227 278.871 102.246 278.546 102.341C278.221 102.437 277.916 102.609 277.649 102.845C277.096 103.341 276.728 104.066 276.622 104.868C276.516 105.671 276.681 106.49 277.082 107.155Z" fill="#263238"/>
<path d="M278.89 114.443C278.906 114.925 279.044 115.391 279.287 115.783C279.53 116.174 279.866 116.474 280.255 116.645C280.643 116.816 281.066 116.85 281.471 116.743C281.877 116.637 282.246 116.394 282.533 116.046C282.82 115.697 283.013 115.259 283.087 114.784C283.16 114.309 283.112 113.82 282.948 113.377C282.784 112.934 282.511 112.556 282.164 112.292C281.816 112.028 281.41 111.888 280.994 111.89C280.712 111.898 280.433 111.969 280.174 112.101C279.916 112.234 279.682 112.424 279.487 112.661C279.291 112.898 279.138 113.177 279.036 113.483C278.933 113.789 278.884 114.115 278.89 114.443Z" fill="#263238"/>
<path d="M289.304 112.481L289.068 127.318L281.515 125.383L289.304 112.481Z" fill="#F28F8F"/>
<path d="M276.396 235.831V237.204C276.396 237.906 276.236 238.595 275.933 239.202C275.63 239.809 275.194 240.313 274.67 240.663L241.846 262.624C241.323 262.974 240.729 263.159 240.126 263.159C239.522 263.159 238.929 262.974 238.406 262.624L178.182 222.257C177.658 221.907 177.222 221.403 176.919 220.796C176.616 220.189 176.456 219.5 176.456 218.798V217.824L240.12 260.496L276.396 235.831Z" fill="#BA68C8"/>
<path opacity="0.6" d="M276.396 235.831V237.204C276.396 237.906 276.236 238.595 275.933 239.202C275.63 239.809 275.194 240.313 274.67 240.663L241.846 262.624C241.323 262.974 240.729 263.159 240.126 263.159C239.522 263.159 238.929 262.974 238.406 262.624L178.182 222.257C177.658 221.907 177.222 221.403 176.919 220.796C176.616 220.189 176.456 219.5 176.456 218.798V217.824L240.12 260.496L276.396 235.831Z" fill="black"/>
<path d="M176.491 217.837L212.2 193.9C212.513 193.691 212.868 193.58 213.229 193.58C213.59 193.58 213.944 193.691 214.257 193.9L276.195 235.433C276.264 235.481 276.321 235.548 276.36 235.629C276.399 235.709 276.42 235.801 276.42 235.893C276.42 235.986 276.399 236.077 276.36 236.158C276.321 236.238 276.264 236.306 276.195 236.353L240.155 260.51L176.491 217.837Z" fill="#BA68C8"/>
<path opacity="0.5" d="M176.491 217.837L212.2 193.9C212.513 193.691 212.868 193.58 213.229 193.58C213.59 193.58 213.944 193.691 214.257 193.9L276.195 235.433C276.264 235.481 276.321 235.548 276.36 235.629C276.399 235.709 276.42 235.801 276.42 235.893C276.42 235.986 276.399 236.077 276.36 236.158C276.321 236.238 276.264 236.306 276.195 236.353L240.155 260.51L176.491 217.837Z" fill="black"/>
<path d="M240.451 256.996L259.706 244.094L203.394 206.349L184.033 219.182L240.451 256.996Z" fill="#263238"/>
<path d="M249.919 221.118L249.564 221.351L240.12 227.679L223.335 216.424L222.992 216.19L232.779 209.63L249.919 221.118Z" fill="#263238"/>
<path d="M249.564 221.351L240.12 227.679L223.335 216.424L232.779 210.096L249.564 221.351Z" fill="#263238"/>
<path opacity="0.7" d="M240.12 260.51V263.173C239.518 263.172 238.927 262.987 238.406 262.637L178.182 222.271C177.658 221.921 177.222 221.417 176.919 220.81C176.616 220.203 176.456 219.514 176.456 218.812V217.837L240.12 260.51Z" fill="black"/>
<path d="M239.139 261.1C238.566 261.365 237.949 261.474 237.334 261.419C236.72 261.365 236.124 261.147 235.593 260.784L175.64 220.596C175.12 220.249 174.671 219.773 174.328 219.201C173.985 218.629 173.755 217.976 173.655 217.288L167.094 171.83C167.057 171.576 167.037 171.319 167.035 171.061C167.028 169.798 167.453 168.583 168.217 167.684L230.522 209.465C230.917 209.717 231.259 210.069 231.523 210.494C231.787 210.919 231.966 211.406 232.047 211.922L239.139 261.1Z" fill="#BA68C8"/>
<path opacity="0.5" d="M239.139 261.1C238.566 261.365 237.949 261.474 237.334 261.419C236.72 261.365 236.124 261.147 235.593 260.784L175.64 220.596C175.12 220.249 174.671 219.773 174.328 219.201C173.985 218.629 173.755 217.976 173.655 217.288L167.094 171.83C167.057 171.576 167.037 171.319 167.035 171.061C167.028 169.798 167.453 168.583 168.217 167.684L230.522 209.465C230.917 209.717 231.259 210.069 231.523 210.494C231.787 210.919 231.966 211.406 232.047 211.922L239.139 261.1Z" fill="black"/>
<path d="M240.12 260.51L239.718 260.784C239.536 260.906 239.346 261.012 239.15 261.1L232.058 211.922C231.984 211.413 231.814 210.929 231.56 210.504C231.307 210.08 230.977 209.725 230.592 209.465L168.288 167.684C168.535 167.401 168.813 167.157 169.115 166.957L231.55 208.806C231.934 209.066 232.265 209.421 232.518 209.845C232.771 210.27 232.941 210.754 233.016 211.263L240.12 260.51Z" fill="#E0E0E0"/>
<path d="M205.38 219.141C204.943 216.108 202.236 212.059 199.34 210.124C196.444 208.188 194.446 209.067 194.896 212.114C195.345 215.161 198.04 219.196 200.936 221.145C203.832 223.094 205.829 222.188 205.38 219.141Z" fill="#BA68C8"/>
<path d="M217.661 248.733C217.536 246.764 217.207 244.819 216.68 242.941C215.758 239.579 213.016 226.622 206.751 224.673C206.006 224.413 205.215 224.384 204.458 224.59C202.72 225.139 201.928 227.239 201.586 229.12C201.267 231.898 201.267 234.714 201.586 237.492C200.623 236.213 199.494 235.116 198.241 234.239C197.129 233.268 195.789 232.712 194.399 232.647C194.206 232.636 194.013 232.68 193.838 232.776C193.662 232.872 193.51 233.016 193.394 233.196C193.17 233.677 193.394 234.28 193.749 234.706C194.375 235.584 195.144 236.326 195.77 237.204C196.261 237.97 196.715 238.767 197.129 239.592C197.921 241.075 198.808 242.475 199.694 243.888C201.398 246.826 203.535 249.391 206.006 251.465C208.85 253.699 212.075 255.193 215.463 255.843C220.037 256.502 224.482 256.42 227.366 255.253L217.661 248.733Z" fill="#FFA8A7"/>
<path d="M329.044 163.869C324.824 161.343 318.653 171.349 320.616 181.808C322.578 192.267 332.247 229.037 332.247 229.037C332.247 229.037 288.571 233.567 284.859 234.102C282.271 234.459 279.375 232.935 276.975 232.016C273.713 230.753 270.415 229.875 267.2 228.502C266.64 228.204 266.031 228.054 265.415 228.063C265.106 228.078 264.81 228.212 264.573 228.443C264.335 228.673 264.17 228.989 264.103 229.339C264.087 229.769 264.182 230.194 264.375 230.561C265.406 233.003 266.956 235.101 268.878 236.655C269.81 237.294 270.695 238.019 271.526 238.824C272.034 239.414 273.157 241.047 272.708 241.939L255.356 253.537C255.356 253.537 259.351 257.573 273.819 252.865C279.035 251.28 284.124 249.182 289.032 246.592C289.032 246.592 340.497 249.077 349.8 245.81C353.086 244.643 354.268 241.939 352.046 229.641C349.504 215.394 342.211 189.412 340.556 182.549C336.928 167.684 336.065 168.028 329.044 163.869Z" fill="#FFA8A7"/>
<path d="M326.869 161.741C326.869 161.741 333.843 164.02 336.845 168.604C339.847 173.188 351.431 217.535 351.431 217.535C348.403 220.468 344.862 222.601 341.053 223.786C337.245 224.971 333.26 225.18 329.375 224.398C329.375 224.398 320.06 193.722 319.067 185.528C317.306 172.832 322.649 162.839 326.869 161.741Z" fill="#BA68C8"/>
<path d="M289.233 191.498C288.666 188.067 290.509 186.214 293.358 187.381C294.866 188.1 296.207 189.219 297.275 190.65C298.342 192.08 299.106 193.781 299.505 195.616C300.072 199.088 289.788 194.902 289.233 191.498Z" fill="#BA68C8"/>
<path d="M308.725 202.19L300.344 196C300.77 198.635 297.708 198.265 294.954 197.153C292.2 196.041 288.831 193.79 288.394 191.155L281.089 191.045C280.415 191.045 280.403 192.061 281.089 192.898C282.897 195.245 287.105 199.404 295.947 202.986C304.789 206.569 308.181 205.457 309.458 204.359C309.871 203.947 309.493 202.753 308.725 202.19Z" fill="#BA68C8"/>
</svg>
